<svg xmlns="http://www.w3.org/2000/svg" width="980" height="560" viewBox="0 0 980 560" role="img" aria-label="go loss convergence">
  <rect width="100%" height="100%" fill="#FCFCFE" />
  <rect x="84" y="54" width="862" height="432" fill="#FFFFFF" stroke="#D7DCE5" stroke-width="1" rx="8" />
  <line x1="84" y1="486.00" x2="946" y2="486.00" stroke="#E7E9EF" stroke-width="1" /><text x="74" y="491.00" text-anchor="end" font-family="Menlo, Monaco, monospace" font-size="12" fill="#6B7380">0.00</text><line x1="84" y1="399.60" x2="946" y2="399.60" stroke="#E7E9EF" stroke-width="1" /><text x="74" y="404.60" text-anchor="end" font-family="Menlo, Monaco, monospace" font-size="12" fill="#6B7380">1.67</text><line x1="84" y1="313.20" x2="946" y2="313.20" stroke="#E7E9EF" stroke-width="1" /><text x="74" y="318.20" text-anchor="end" font-family="Menlo, Monaco, monospace" font-size="12" fill="#6B7380">3.34</text><line x1="84" y1="226.80" x2="946" y2="226.80" stroke="#E7E9EF" stroke-width="1" /><text x="74" y="231.80" text-anchor="end" font-family="Menlo, Monaco, monospace" font-size="12" fill="#6B7380">5.01</text><line x1="84" y1="140.40" x2="946" y2="140.40" stroke="#E7E9EF" stroke-width="1" /><text x="74" y="145.40" text-anchor="end" font-family="Menlo, Monaco, monospace" font-size="12" fill="#6B7380">6.67</text><line x1="84" y1="54.00" x2="946" y2="54.00" stroke="#E7E9EF" stroke-width="1" /><text x="74" y="59.00" text-anchor="end" font-family="Menlo, Monaco, monospace" font-size="12" fill="#6B7380">8.34</text>
  <line x1="84" y1="486" x2="946" y2="486" stroke="#9FA8B8" stroke-width="1.2" />
  <line x1="84.00" y1="486" x2="84.00" y2="492" stroke="#B8C0CC" stroke-width="1" /><text x="84.00" y="510" text-anchor="middle" font-family="Menlo, Monaco, monospace" font-size="12" fill="#6B7380">0</text><line x1="256.57" y1="486" x2="256.57" y2="492" stroke="#B8C0CC" stroke-width="1" /><text x="256.57" y="510" text-anchor="middle" font-family="Menlo, Monaco, monospace" font-size="12" fill="#6B7380">200</text><line x1="429.15" y1="486" x2="429.15" y2="492" stroke="#B8C0CC" stroke-width="1" /><text x="429.15" y="510" text-anchor="middle" font-family="Menlo, Monaco, monospace" font-size="12" fill="#6B7380">400</text><line x1="601.72" y1="486" x2="601.72" y2="492" stroke="#B8C0CC" stroke-width="1" /><text x="601.72" y="510" text-anchor="middle" font-family="Menlo, Monaco, monospace" font-size="12" fill="#6B7380">600</text><line x1="774.29" y1="486" x2="774.29" y2="492" stroke="#B8C0CC" stroke-width="1" /><text x="774.29" y="510" text-anchor="middle" font-family="Menlo, Monaco, monospace" font-size="12" fill="#6B7380">800</text><line x1="946.00" y1="486" x2="946.00" y2="492" stroke="#B8C0CC" stroke-width="1" /><text x="946.00" y="510" text-anchor="middle" font-family="Menlo, Monaco, monospace" font-size="12" fill="#6B7380">999</text>

  <polyline fill="none" stroke="#00ADD8" stroke-opacity="0.28" stroke-width="1.4" points="84.00,74.57 84.86,86.51 85.73,110.00 86.59,143.01 87.45,180.16 88.31,213.95 89.18,249.43 90.04,283.34 90.90,308.38 91.77,338.95 92.63,371.45 93.49,394.12 94.35,414.14 95.22,425.15 96.08,440.16 96.94,452.45 97.81,461.05 98.67,467.34 99.53,471.68 100.39,474.81 101.26,477.13 102.12,474.89 102.98,477.47 103.85,477.65 104.71,479.51 105.57,480.63 106.43,481.32 107.30,481.79 108.16,482.13 109.02,482.39 109.89,482.61 110.75,482.80 111.61,482.98 112.47,483.10 113.34,483.23 114.20,483.35 115.06,483.45 115.93,483.54 116.79,483.62 117.65,483.69 118.51,483.75 119.38,483.80 120.24,483.85 121.10,483.90 121.97,483.94 122.83,483.98 123.69,484.03 124.55,484.06 125.42,484.10 126.28,484.13 127.14,484.16 128.01,484.18 128.87,484.21 129.73,484.23 130.59,484.26 131.46,484.28 132.32,484.30 133.18,484.31 134.05,484.33 134.91,484.35 135.77,484.36 136.63,484.37 137.50,484.39 138.36,484.40 139.22,484.41 140.09,484.42 140.95,484.43 141.81,484.44 142.67,484.45 143.54,484.46 144.40,484.47 145.26,484.48 146.13,484.49 146.99,484.49 147.85,484.50 148.71,484.51 149.58,484.52 150.44,484.52 151.30,484.53 152.17,484.54 153.03,484.54 153.89,484.55 154.75,484.56 155.62,484.56 156.48,484.57 157.34,484.57 158.21,484.58 159.07,484.58 159.93,484.59 160.79,484.59 161.66,484.60 162.52,484.60 163.38,484.61 164.25,484.61 165.11,484.61 165.97,484.62 166.83,484.62 167.70,484.63 168.56,484.63 169.42,484.63 170.29,484.64 171.15,484.64 172.01,484.64 172.87,484.65 173.74,484.65 174.60,484.65 175.46,484.66 176.33,484.66 177.19,484.66 178.05,484.67 178.91,484.67 179.78,484.67 180.64,484.67 181.50,484.68 182.37,484.68 183.23,484.68 184.09,484.69 184.95,484.69 185.82,484.69 186.68,484.69 187.54,484.70 188.41,484.70 189.27,484.70 190.13,484.70 190.99,484.71 191.86,484.71 192.72,484.71 193.58,484.71 194.45,484.72 195.31,484.72 196.17,484.72 197.04,484.72 197.90,484.72 198.76,484.73 199.62,484.73 200.49,484.73 201.35,484.73 202.21,484.73 203.08,484.74 203.94,484.74 204.80,484.74 205.66,484.74 206.53,484.74 207.39,484.74 208.25,484.74 209.12,484.75 209.98,484.75 210.84,484.75 211.70,484.75 212.57,484.75 213.43,484.75 214.29,484.75 215.16,484.76 216.02,484.76 216.88,484.76 217.74,484.76 218.61,484.76 219.47,484.76 220.33,484.76 221.20,484.76 222.06,484.77 222.92,484.77 223.78,484.77 224.65,484.77 225.51,484.77 226.37,484.77 227.24,484.77 228.10,484.77 228.96,484.77 229.82,484.77 230.69,484.78 231.55,484.78 232.41,484.78 233.28,484.78 234.14,484.78 235.00,484.78 235.86,484.78 236.73,484.78 237.59,484.78 238.45,484.78 239.32,484.78 240.18,484.78 241.04,484.78 241.90,484.79 242.77,484.79 243.63,484.79 244.49,484.79 245.36,484.79 246.22,484.79 247.08,484.79 247.94,484.79 248.81,484.79 249.67,484.79 250.53,484.79 251.40,484.79 252.26,484.79 253.12,484.79 253.98,484.79 254.85,484.79 255.71,484.79 256.57,484.79 257.44,484.79 258.30,484.79 259.16,484.79 260.02,484.80 260.89,484.80 261.75,484.80 262.61,484.80 263.48,484.80 264.34,484.80 265.20,484.80 266.06,484.80 266.93,484.80 267.79,484.80 268.65,484.80 269.52,484.80 270.38,484.80 271.24,484.80 272.10,484.80 272.97,484.80 273.83,484.80 274.69,484.80 275.56,484.80 276.42,484.80 277.28,484.80 278.14,484.80 279.01,484.80 279.87,484.80 280.73,484.80 281.60,484.80 282.46,484.80 283.32,484.80 284.18,484.80 285.05,484.80 285.91,484.80 286.77,484.80 287.64,484.80 288.50,484.80 289.36,484.80 290.22,484.80 291.09,484.80 291.95,484.79 292.81,484.79 293.68,484.79 294.54,484.79 295.40,484.79 296.26,484.79 297.13,484.79 297.99,484.79 298.85,484.79 299.72,484.79 300.58,484.79 301.44,484.79 302.30,484.79 303.17,484.79 304.03,484.79 304.89,484.79 305.76,484.79 306.62,484.79 307.48,484.79 308.34,484.79 309.21,484.79 310.07,484.79 310.93,484.79 311.80,484.78 312.66,484.78 313.52,484.78 314.38,484.78 315.25,484.78 316.11,484.78 316.97,484.78 317.84,484.79 318.70,484.79 319.56,484.79 320.42,484.79 321.29,484.79 322.15,484.79 323.01,484.79 323.88,484.79 324.74,484.79 325.60,484.79 326.46,484.79 327.33,484.79 328.19,484.79 329.05,484.79 329.92,484.79 330.78,484.79 331.64,484.79 332.50,484.79 333.37,484.79 334.23,484.79 335.09,484.79 335.96,484.79 336.82,484.79 337.68,484.79 338.54,484.79 339.41,484.79 340.27,484.79 341.13,484.79 342.00,484.79 342.86,484.79 343.72,484.79 344.58,484.79 345.45,484.79 346.31,484.79 347.17,484.79 348.04,484.79 348.90,484.79 349.76,484.78 350.62,484.78 351.49,484.78 352.35,484.78 353.21,484.78 354.08,484.78 354.94,484.78 355.80,484.78 356.66,484.78 357.53,484.78 358.39,484.78 359.25,484.78 360.12,484.78 360.98,484.78 361.84,484.78 362.70,484.78 363.57,484.78 364.43,484.78 365.29,484.78 366.16,484.78 367.02,484.78 367.88,484.78 368.74,484.78 369.61,484.78 370.47,484.78 371.33,484.78 372.20,484.78 373.06,484.78 373.92,484.78 374.78,484.78 375.65,484.78 376.51,484.78 377.37,484.78 378.24,484.78 379.10,484.78 379.96,484.78 380.82,484.78 381.69,484.78 382.55,484.78 383.41,484.78 384.28,484.78 385.14,484.78 386.00,484.78 386.86,484.78 387.73,484.78 388.59,484.78 389.45,484.78 390.32,484.78 391.18,484.78 392.04,484.78 392.90,484.78 393.77,484.78 394.63,484.78 395.49,484.78 396.36,484.78 397.22,484.78 398.08,484.78 398.94,484.78 399.81,484.78 400.67,484.78 401.53,484.78 402.40,484.78 403.26,484.78 404.12,484.78 404.98,484.78 405.85,484.78 406.71,484.78 407.57,484.78 408.44,484.78 409.30,484.78 410.16,484.78 411.03,484.78 411.89,484.78 412.75,484.78 413.61,484.78 414.48,484.78 415.34,484.78 416.20,484.78 417.07,484.78 417.93,484.78 418.79,484.78 419.65,484.78 420.52,484.78 421.38,484.78 422.24,484.78 423.11,484.78 423.97,484.78 424.83,484.78 425.69,484.78 426.56,484.78 427.42,484.78 428.28,484.78 429.15,484.78 430.01,484.78 430.87,484.78 431.73,484.78 432.60,484.78 433.46,484.78 434.32,484.78 435.19,484.78 436.05,484.78 436.91,484.78 437.77,484.78 438.64,484.78 439.50,484.78 440.36,484.78 441.23,484.78 442.09,484.78 442.95,484.78 443.81,484.78 444.68,484.78 445.54,484.78 446.40,484.78 447.27,484.78 448.13,484.78 448.99,484.78 449.85,484.78 450.72,484.78 451.58,484.78 452.44,484.78 453.31,484.78 454.17,484.78 455.03,484.78 455.89,484.78 456.76,484.78 457.62,484.78 458.48,484.78 459.35,484.78 460.21,484.78 461.07,484.78 461.93,484.78 462.80,484.78 463.66,484.78 464.52,484.78 465.39,484.78 466.25,484.78 467.11,484.78 467.97,484.78 468.84,484.78 469.70,484.78 470.56,484.78 471.43,484.78 472.29,484.78 473.15,484.78 474.01,484.78 474.88,484.78 475.74,484.78 476.60,484.78 477.47,484.78 478.33,484.78 479.19,484.78 480.05,484.78 480.92,484.78 481.78,484.78 482.64,484.78 483.51,484.78 484.37,484.78 485.23,484.78 486.09,484.78 486.96,484.78 487.82,484.78 488.68,484.78 489.55,484.78 490.41,484.78 491.27,484.78 492.13,484.78 493.00,484.78 493.86,484.78 494.72,484.78 495.59,484.78 496.45,484.78 497.31,484.78 498.17,484.78 499.04,484.78 499.90,484.78 500.76,484.78 501.63,484.78 502.49,484.78 503.35,484.78 504.21,484.78 505.08,484.78 505.94,484.78 506.80,484.78 507.67,484.78 508.53,484.78 509.39,484.78 510.25,484.78 511.12,484.78 511.98,484.78 512.84,484.78 513.71,484.78 514.57,484.78 515.43,484.78 516.29,484.78 517.16,484.78 518.02,484.78 518.88,484.78 519.75,484.78 520.61,484.78 521.47,484.78 522.33,484.78 523.20,484.78 524.06,484.79 524.92,484.79 525.79,484.79 526.65,484.79 527.51,484.79 528.37,484.79 529.24,484.79 530.10,484.79 530.96,484.79 531.83,484.79 532.69,484.79 533.55,484.79 534.41,484.77 535.28,484.77 536.14,484.77 537.00,484.79 537.87,484.79 538.73,484.79 539.59,484.77 540.45,484.79 541.32,484.79 542.18,484.79 543.04,484.79 543.91,484.79 544.77,484.79 545.63,484.79 546.49,484.79 547.36,484.79 548.22,484.79 549.08,484.77 549.95,484.77 550.81,484.77 551.67,484.77 552.53,484.79 553.40,484.77 554.26,484.77 555.12,484.77 555.99,484.77 556.85,484.77 557.71,484.79 558.57,484.79 559.44,484.77 560.30,484.77 561.16,484.77 562.03,484.77 562.89,484.77 563.75,484.77 564.61,484.79 565.48,484.79 566.34,484.79 567.20,484.77 568.07,484.77 568.93,484.77 569.79,484.76 570.65,484.76 571.52,484.76 572.38,484.79 573.24,484.79 574.11,484.79 574.97,484.79 575.83,484.76 576.69,484.76 577.56,484.77 578.42,484.76 579.28,484.76 580.15,484.76 581.01,484.76 581.87,484.76 582.73,484.76 583.60,484.76 584.46,484.78 585.32,484.78 586.19,484.79 587.05,484.78 587.91,484.78 588.77,484.79 589.64,484.79 590.50,484.79 591.36,484.79 592.23,484.76 593.09,484.76 593.95,484.76 594.81,484.76 595.68,484.76 596.54,484.76 597.40,484.76 598.27,484.76 599.13,484.76 599.99,484.76 600.85,484.76 601.72,484.76 602.58,484.76 603.44,484.76 604.31,484.76 605.17,484.76 606.03,484.76 606.89,484.76 607.76,484.76 608.62,484.76 609.48,484.76 610.35,484.76 611.21,484.76 612.07,484.76 612.93,484.76 613.80,484.76 614.66,484.76 615.52,484.76 616.39,484.76 617.25,484.76 618.11,484.76 618.97,484.76 619.84,484.76 620.70,484.76 621.56,484.76 622.43,484.76 623.29,484.76 624.15,484.76 625.02,484.76 625.88,484.76 626.74,484.76 627.60,484.76 628.47,484.76 629.33,484.76 630.19,484.76 631.06,484.76 631.92,484.76 632.78,484.76 633.64,484.76 634.51,484.76 635.37,484.76 636.23,484.76 637.10,484.76 637.96,484.76 638.82,484.76 639.68,484.76 640.55,484.76 641.41,484.76 642.27,484.76 643.14,484.76 644.00,484.76 644.86,484.76 645.72,484.76 646.59,484.76 647.45,484.76 648.31,484.76 649.18,484.76 650.04,484.76 650.90,484.76 651.76,484.76 652.63,484.76 653.49,484.76 654.35,484.76 655.22,484.76 656.08,484.76 656.94,484.76 657.80,484.76 658.67,484.76 659.53,484.76 660.39,484.78 661.26,484.78 662.12,484.78 662.98,484.78 663.84,484.78 664.71,484.78 665.57,484.78 666.43,484.76 667.30,484.78 668.16,484.78 669.02,484.78 669.88,484.76 670.75,484.76 671.61,484.76 672.47,484.76 673.34,484.74 674.20,484.74 675.06,484.74 675.92,484.74 676.79,484.76 677.65,484.76 678.51,484.76 679.38,484.76 680.24,484.74 681.10,484.74 681.96,484.74 682.83,484.74 683.69,484.74 684.55,484.74 685.42,484.74 686.28,484.74 687.14,484.74 688.00,484.74 688.87,484.74 689.73,484.74 690.59,484.74 691.46,484.74 692.32,484.74 693.18,484.74 694.04,484.74 694.91,484.74 695.77,484.74 696.63,484.74 697.50,484.74 698.36,484.74 699.22,484.74 700.08,484.74 700.95,484.74 701.81,484.74 702.67,484.74 703.54,484.74 704.40,484.74 705.26,484.74 706.12,484.74 706.99,484.74 707.85,484.74 708.71,484.74 709.58,484.74 710.44,484.74 711.30,484.74 712.16,484.74 713.03,484.74 713.89,484.74 714.75,484.74 715.62,484.74 716.48,484.74 717.34,484.74 718.20,484.74 719.07,484.74 719.93,484.74 720.79,484.74 721.66,484.74 722.52,484.74 723.38,484.74 724.24,484.74 725.11,484.74 725.97,484.74 726.83,484.74 727.70,484.74 728.56,484.74 729.42,484.74 730.28,484.74 731.15,484.74 732.01,484.74 732.87,484.74 733.74,484.74 734.60,484.74 735.46,484.74 736.32,484.74 737.19,484.74 738.05,484.74 738.91,484.74 739.78,484.74 740.64,484.74 741.50,484.74 742.36,484.74 743.23,484.74 744.09,484.74 744.95,484.74 745.82,484.74 746.68,484.74 747.54,484.74 748.40,484.74 749.27,484.74 750.13,484.74 750.99,484.74 751.86,484.74 752.72,484.74 753.58,484.74 754.44,484.73 755.31,484.74 756.17,484.74 757.03,484.73 757.90,484.73 758.76,484.73 759.62,484.73 760.48,484.73 761.35,484.73 762.21,484.73 763.07,484.73 763.94,484.73 764.80,484.73 765.66,484.73 766.52,484.73 767.39,484.73 768.25,484.73 769.11,484.73 769.98,484.73 770.84,484.73 771.70,484.73 772.56,484.73 773.43,484.73 774.29,484.73 775.15,484.73 776.02,484.73 776.88,484.73 777.74,484.73 778.60,484.73 779.47,484.73 780.33,484.73 781.19,484.73 782.06,484.73 782.92,484.73 783.78,484.73 784.64,484.73 785.51,484.73 786.37,484.73 787.23,484.73 788.10,484.73 788.96,484.73 789.82,484.73 790.68,484.73 791.55,484.73 792.41,484.73 793.27,484.73 794.14,484.73 795.00,484.73 795.86,484.73 796.72,484.73 797.59,484.73 798.45,484.73 799.31,484.73 800.18,484.73 801.04,484.73 801.90,484.73 802.76,484.73 803.63,484.73 804.49,484.73 805.35,484.73 806.22,484.73 807.08,484.73 807.94,484.73 808.80,484.73 809.67,484.73 810.53,484.73 811.39,484.73 812.26,484.73 813.12,484.73 813.98,484.73 814.84,484.73 815.71,484.73 816.57,484.73 817.43,484.73 818.30,484.73 819.16,484.73 820.02,484.73 820.88,484.73 821.75,484.73 822.61,484.73 823.47,484.73 824.34,484.73 825.20,484.73 826.06,484.73 826.92,484.73 827.79,484.73 828.65,484.73 829.51,484.73 830.38,484.73 831.24,484.73 832.10,484.73 832.96,484.73 833.83,484.72 834.69,484.73 835.55,484.72 836.42,484.72 837.28,484.73 838.14,484.72 839.01,484.72 839.87,484.72 840.73,484.72 841.59,484.72 842.46,484.72 843.32,484.72 844.18,484.72 845.05,484.72 845.91,484.72 846.77,484.72 847.63,484.72 848.50,484.72 849.36,484.72 850.22,484.72 851.09,484.72 851.95,484.72 852.81,484.72 853.67,484.72 854.54,484.72 855.40,484.72 856.26,484.72 857.13,484.72 857.99,484.72 858.85,484.72 859.71,484.72 860.58,484.72 861.44,484.72 862.30,484.72 863.17,484.72 864.03,484.72 864.89,484.72 865.75,484.72 866.62,484.72 867.48,484.72 868.34,484.72 869.21,484.72 870.07,484.72 870.93,484.72 871.79,484.72 872.66,484.72 873.52,484.72 874.38,484.72 875.25,484.72 876.11,484.72 876.97,484.72 877.83,484.72 878.70,484.72 879.56,484.72 880.42,484.72 881.29,484.72 882.15,484.72 883.01,484.72 883.87,484.72 884.74,484.72 885.60,484.72 886.46,484.72 887.33,484.72 888.19,484.72 889.05,484.72 889.91,484.72 890.78,484.72 891.64,484.72 892.50,484.72 893.37,484.72 894.23,484.72 895.09,484.72 895.95,484.72 896.82,484.72 897.68,484.72 898.54,484.72 899.41,484.72 900.27,484.72 901.13,484.72 901.99,484.72 902.86,484.72 903.72,484.72 904.58,484.72 905.45,484.72 906.31,484.72 907.17,484.72 908.03,484.72 908.90,484.72 909.76,484.72 910.62,484.72 911.49,484.72 912.35,484.72 913.21,484.72 914.07,484.72 914.94,484.72 915.80,484.72 916.66,484.72 917.53,484.72 918.39,484.72 919.25,484.72 920.11,484.72 920.98,484.72 921.84,484.72 922.70,484.72 923.57,484.72 924.43,484.72 925.29,484.72 926.15,484.72 927.02,484.72 927.88,484.72 928.74,484.72 929.61,484.72 930.47,484.72 931.33,484.72 932.19,484.72 933.06,484.72 933.92,484.72 934.78,484.72 935.65,484.72 936.51,484.72 937.37,484.72 938.23,484.72 939.10,484.72 939.96,484.72 940.82,484.72 941.69,484.72 942.55,484.72 943.41,484.72 944.27,484.72 945.14,484.72 946.00,484.72" />
  <polyline fill="none" stroke="#00ADD8" stroke-width="3" points="84.00,74.57 84.86,80.54 85.73,90.36 86.59,103.52 87.45,118.85 88.31,134.70 89.18,151.09 90.04,167.62 90.90,183.26 91.77,198.83 92.63,214.52 93.49,229.49 94.35,243.69 95.22,256.65 96.08,268.89 96.94,280.36 97.81,290.99 98.67,300.79 99.53,309.78 100.39,318.03 101.26,325.61 102.12,332.39 102.98,338.70 103.85,344.49 104.71,349.89 105.57,366.13 106.43,381.93 107.30,396.80 108.16,410.36 109.02,422.45 109.89,433.20 110.75,442.53 111.61,450.52 112.47,457.51 113.34,463.28 114.20,467.76 115.06,471.33 115.93,474.11 116.79,476.44 117.65,478.19 118.51,479.44 119.38,480.35 120.24,481.01 121.10,481.50 121.97,481.86 122.83,482.14 123.69,482.50 124.55,482.77 125.42,483.02 126.28,483.21 127.14,483.35 128.01,483.46 128.87,483.56 129.73,483.64 130.59,483.72 131.46,483.79 132.32,483.85 133.18,483.90 134.05,483.95 134.91,483.99 135.77,484.03 136.63,484.07 137.50,484.10 138.36,484.13 139.22,484.16 140.09,484.19 140.95,484.22 141.81,484.24 142.67,484.26 143.54,484.28 144.40,484.30 145.26,484.32 146.13,484.34 146.99,484.35 147.85,484.37 148.71,484.38 149.58,484.39 150.44,484.41 151.30,484.42 152.17,484.43 153.03,484.44 153.89,484.45 154.75,484.46 155.62,484.47 156.48,484.48 157.34,484.49 158.21,484.50 159.07,484.50 159.93,484.51 160.79,484.52 161.66,484.53 162.52,484.53 163.38,484.54 164.25,484.54 165.11,484.55 165.97,484.56 166.83,484.56 167.70,484.57 168.56,484.57 169.42,484.58 170.29,484.58 171.15,484.59 172.01,484.59 172.87,484.60 173.74,484.60 174.60,484.61 175.46,484.61 176.33,484.62 177.19,484.62 178.05,484.62 178.91,484.63 179.78,484.63 180.64,484.63 181.50,484.64 182.37,484.64 183.23,484.65 184.09,484.65 184.95,484.65 185.82,484.66 186.68,484.66 187.54,484.66 188.41,484.66 189.27,484.67 190.13,484.67 190.99,484.67 191.86,484.68 192.72,484.68 193.58,484.68 194.45,484.68 195.31,484.69 196.17,484.69 197.04,484.69 197.90,484.70 198.76,484.70 199.62,484.70 200.49,484.70 201.35,484.71 202.21,484.71 203.08,484.71 203.94,484.71 204.80,484.71 205.66,484.72 206.53,484.72 207.39,484.72 208.25,484.72 209.12,484.72 209.98,484.73 210.84,484.73 211.70,484.73 212.57,484.73 213.43,484.73 214.29,484.74 215.16,484.74 216.02,484.74 216.88,484.74 217.74,484.74 218.61,484.74 219.47,484.75 220.33,484.75 221.20,484.75 222.06,484.75 222.92,484.75 223.78,484.75 224.65,484.75 225.51,484.76 226.37,484.76 227.24,484.76 228.10,484.76 228.96,484.76 229.82,484.76 230.69,484.76 231.55,484.76 232.41,484.76 233.28,484.77 234.14,484.77 235.00,484.77 235.86,484.77 236.73,484.77 237.59,484.77 238.45,484.77 239.32,484.77 240.18,484.77 241.04,484.77 241.90,484.78 242.77,484.78 243.63,484.78 244.49,484.78 245.36,484.78 246.22,484.78 247.08,484.78 247.94,484.78 248.81,484.78 249.67,484.78 250.53,484.78 251.40,484.78 252.26,484.78 253.12,484.79 253.98,484.79 254.85,484.79 255.71,484.79 256.57,484.79 257.44,484.79 258.30,484.79 259.16,484.79 260.02,484.79 260.89,484.79 261.75,484.79 262.61,484.79 263.48,484.79 264.34,484.79 265.20,484.79 266.06,484.79 266.93,484.79 267.79,484.79 268.65,484.79 269.52,484.79 270.38,484.80 271.24,484.80 272.10,484.80 272.97,484.80 273.83,484.80 274.69,484.80 275.56,484.80 276.42,484.80 277.28,484.80 278.14,484.80 279.01,484.80 279.87,484.80 280.73,484.80 281.60,484.80 282.46,484.80 283.32,484.80 284.18,484.80 285.05,484.80 285.91,484.80 286.77,484.80 287.64,484.80 288.50,484.80 289.36,484.80 290.22,484.80 291.09,484.80 291.95,484.80 292.81,484.80 293.68,484.80 294.54,484.80 295.40,484.80 296.26,484.80 297.13,484.80 297.99,484.80 298.85,484.80 299.72,484.80 300.58,484.80 301.44,484.80 302.30,484.80 303.17,484.80 304.03,484.80 304.89,484.80 305.76,484.79 306.62,484.79 307.48,484.79 308.34,484.79 309.21,484.79 310.07,484.79 310.93,484.79 311.80,484.79 312.66,484.79 313.52,484.79 314.38,484.79 315.25,484.79 316.11,484.79 316.97,484.79 317.84,484.79 318.70,484.79 319.56,484.79 320.42,484.79 321.29,484.79 322.15,484.79 323.01,484.79 323.88,484.79 324.74,484.79 325.60,484.79 326.46,484.79 327.33,484.79 328.19,484.79 329.05,484.79 329.92,484.79 330.78,484.79 331.64,484.79 332.50,484.79 333.37,484.79 334.23,484.79 335.09,484.79 335.96,484.79 336.82,484.79 337.68,484.79 338.54,484.79 339.41,484.79 340.27,484.79 341.13,484.79 342.00,484.79 342.86,484.79 343.72,484.79 344.58,484.79 345.45,484.79 346.31,484.79 347.17,484.79 348.04,484.79 348.90,484.79 349.76,484.79 350.62,484.79 351.49,484.79 352.35,484.79 353.21,484.79 354.08,484.79 354.94,484.79 355.80,484.79 356.66,484.79 357.53,484.79 358.39,484.79 359.25,484.79 360.12,484.79 360.98,484.79 361.84,484.79 362.70,484.79 363.57,484.78 364.43,484.78 365.29,484.78 366.16,484.78 367.02,484.78 367.88,484.78 368.74,484.78 369.61,484.78 370.47,484.78 371.33,484.78 372.20,484.78 373.06,484.78 373.92,484.78 374.78,484.78 375.65,484.78 376.51,484.78 377.37,484.78 378.24,484.78 379.10,484.78 379.96,484.78 380.82,484.78 381.69,484.78 382.55,484.78 383.41,484.78 384.28,484.78 385.14,484.78 386.00,484.78 386.86,484.78 387.73,484.78 388.59,484.78 389.45,484.78 390.32,484.78 391.18,484.78 392.04,484.78 392.90,484.78 393.77,484.78 394.63,484.78 395.49,484.78 396.36,484.78 397.22,484.78 398.08,484.78 398.94,484.78 399.81,484.78 400.67,484.78 401.53,484.78 402.40,484.78 403.26,484.78 404.12,484.78 404.98,484.78 405.85,484.78 406.71,484.78 407.57,484.78 408.44,484.78 409.30,484.78 410.16,484.78 411.03,484.78 411.89,484.78 412.75,484.78 413.61,484.78 414.48,484.78 415.34,484.78 416.20,484.78 417.07,484.78 417.93,484.78 418.79,484.78 419.65,484.78 420.52,484.78 421.38,484.78 422.24,484.78 423.11,484.78 423.97,484.78 424.83,484.78 425.69,484.78 426.56,484.78 427.42,484.78 428.28,484.78 429.15,484.78 430.01,484.78 430.87,484.78 431.73,484.78 432.60,484.78 433.46,484.78 434.32,484.78 435.19,484.78 436.05,484.78 436.91,484.78 437.77,484.78 438.64,484.78 439.50,484.78 440.36,484.78 441.23,484.78 442.09,484.78 442.95,484.78 443.81,484.78 444.68,484.78 445.54,484.78 446.40,484.78 447.27,484.78 448.13,484.78 448.99,484.78 449.85,484.78 450.72,484.78 451.58,484.78 452.44,484.78 453.31,484.78 454.17,484.78 455.03,484.78 455.89,484.78 456.76,484.78 457.62,484.78 458.48,484.78 459.35,484.78 460.21,484.78 461.07,484.78 461.93,484.78 462.80,484.78 463.66,484.78 464.52,484.78 465.39,484.78 466.25,484.78 467.11,484.78 467.97,484.78 468.84,484.78 469.70,484.78 470.56,484.78 471.43,484.78 472.29,484.78 473.15,484.78 474.01,484.78 474.88,484.78 475.74,484.78 476.60,484.78 477.47,484.78 478.33,484.78 479.19,484.78 480.05,484.78 480.92,484.78 481.78,484.78 482.64,484.78 483.51,484.78 484.37,484.78 485.23,484.78 486.09,484.78 486.96,484.78 487.82,484.78 488.68,484.78 489.55,484.78 490.41,484.78 491.27,484.78 492.13,484.78 493.00,484.78 493.86,484.78 494.72,484.78 495.59,484.78 496.45,484.78 497.31,484.78 498.17,484.78 499.04,484.78 499.90,484.78 500.76,484.78 501.63,484.78 502.49,484.78 503.35,484.78 504.21,484.78 505.08,484.78 505.94,484.78 506.80,484.78 507.67,484.78 508.53,484.78 509.39,484.78 510.25,484.78 511.12,484.78 511.98,484.78 512.84,484.78 513.71,484.78 514.57,484.78 515.43,484.78 516.29,484.78 517.16,484.78 518.02,484.78 518.88,484.78 519.75,484.78 520.61,484.78 521.47,484.78 522.33,484.78 523.20,484.78 524.06,484.78 524.92,484.78 525.79,484.78 526.65,484.78 527.51,484.78 528.37,484.78 529.24,484.78 530.10,484.78 530.96,484.78 531.83,484.79 532.69,484.79 533.55,484.79 534.41,484.79 535.28,484.78 536.14,484.78 537.00,484.78 537.87,484.78 538.73,484.78 539.59,484.78 540.45,484.78 541.32,484.78 542.18,484.79 543.04,484.79 543.91,484.79 544.77,484.79 545.63,484.79 546.49,484.79 547.36,484.79 548.22,484.79 549.08,484.78 549.95,484.78 550.81,484.78 551.67,484.78 552.53,484.78 553.40,484.78 554.26,484.78 555.12,484.78 555.99,484.78 556.85,484.78 557.71,484.78 558.57,484.78 559.44,484.78 560.30,484.78 561.16,484.78 562.03,484.78 562.89,484.78 563.75,484.78 564.61,484.78 565.48,484.77 566.34,484.77 567.20,484.77 568.07,484.77 568.93,484.77 569.79,484.77 570.65,484.77 571.52,484.77 572.38,484.77 573.24,484.77 574.11,484.77 574.97,484.77 575.83,484.77 576.69,484.77 577.56,484.77 578.42,484.77 579.28,484.77 580.15,484.77 581.01,484.77 581.87,484.77 582.73,484.77 583.60,484.77 584.46,484.77 585.32,484.77 586.19,484.77 587.05,484.77 587.91,484.77 588.77,484.77 589.64,484.77 590.50,484.77 591.36,484.78 592.23,484.78 593.09,484.78 593.95,484.77 594.81,484.77 595.68,484.77 596.54,484.77 597.40,484.77 598.27,484.77 599.13,484.77 599.99,484.77 600.85,484.77 601.72,484.77 602.58,484.77 603.44,484.77 604.31,484.77 605.17,484.77 606.03,484.77 606.89,484.77 607.76,484.77 608.62,484.77 609.48,484.77 610.35,484.77 611.21,484.77 612.07,484.76 612.93,484.76 613.80,484.76 614.66,484.76 615.52,484.76 616.39,484.76 617.25,484.76 618.11,484.76 618.97,484.76 619.84,484.76 620.70,484.76 621.56,484.76 622.43,484.76 623.29,484.76 624.15,484.76 625.02,484.76 625.88,484.76 626.74,484.76 627.60,484.76 628.47,484.76 629.33,484.76 630.19,484.76 631.06,484.76 631.92,484.76 632.78,484.76 633.64,484.76 634.51,484.76 635.37,484.76 636.23,484.76 637.10,484.76 637.96,484.76 638.82,484.76 639.68,484.76 640.55,484.76 641.41,484.76 642.27,484.76 643.14,484.76 644.00,484.76 644.86,484.76 645.72,484.76 646.59,484.76 647.45,484.76 648.31,484.76 649.18,484.76 650.04,484.76 650.90,484.76 651.76,484.76 652.63,484.76 653.49,484.76 654.35,484.76 655.22,484.76 656.08,484.76 656.94,484.76 657.80,484.76 658.67,484.76 659.53,484.76 660.39,484.76 661.26,484.76 662.12,484.76 662.98,484.77 663.84,484.77 664.71,484.77 665.57,484.77 666.43,484.77 667.30,484.77 668.16,484.77 669.02,484.77 669.88,484.77 670.75,484.77 671.61,484.77 672.47,484.77 673.34,484.77 674.20,484.77 675.06,484.77 675.92,484.77 676.79,484.77 677.65,484.77 678.51,484.77 679.38,484.77 680.24,484.77 681.10,484.76 681.96,484.76 682.83,484.76 683.69,484.76 684.55,484.76 685.42,484.76 686.28,484.75 687.14,484.75 688.00,484.75 688.87,484.75 689.73,484.75 690.59,484.75 691.46,484.74 692.32,484.74 693.18,484.74 694.04,484.74 694.91,484.74 695.77,484.74 696.63,484.74 697.50,484.74 698.36,484.74 699.22,484.74 700.08,484.74 700.95,484.74 701.81,484.74 702.67,484.74 703.54,484.74 704.40,484.74 705.26,484.74 706.12,484.74 706.99,484.74 707.85,484.74 708.71,484.74 709.58,484.74 710.44,484.74 711.30,484.74 712.16,484.74 713.03,484.74 713.89,484.74 714.75,484.74 715.62,484.74 716.48,484.74 717.34,484.74 718.20,484.74 719.07,484.74 719.93,484.74 720.79,484.74 721.66,484.74 722.52,484.74 723.38,484.74 724.24,484.74 725.11,484.74 725.97,484.74 726.83,484.74 727.70,484.74 728.56,484.74 729.42,484.74 730.28,484.74 731.15,484.74 732.01,484.74 732.87,484.74 733.74,484.74 734.60,484.74 735.46,484.74 736.32,484.74 737.19,484.74 738.05,484.74 738.91,484.74 739.78,484.74 740.64,484.74 741.50,484.74 742.36,484.74 743.23,484.74 744.09,484.74 744.95,484.74 745.82,484.74 746.68,484.74 747.54,484.74 748.40,484.74 749.27,484.74 750.13,484.74 750.99,484.74 751.86,484.74 752.72,484.74 753.58,484.74 754.44,484.74 755.31,484.74 756.17,484.74 757.03,484.74 757.90,484.74 758.76,484.74 759.62,484.74 760.48,484.74 761.35,484.74 762.21,484.74 763.07,484.74 763.94,484.74 764.80,484.74 765.66,484.73 766.52,484.73 767.39,484.73 768.25,484.73 769.11,484.73 769.98,484.73 770.84,484.73 771.70,484.73 772.56,484.73 773.43,484.73 774.29,484.73 775.15,484.73 776.02,484.73 776.88,484.73 777.74,484.73 778.60,484.73 779.47,484.73 780.33,484.73 781.19,484.73 782.06,484.73 782.92,484.73 783.78,484.73 784.64,484.73 785.51,484.73 786.37,484.73 787.23,484.73 788.10,484.73 788.96,484.73 789.82,484.73 790.68,484.73 791.55,484.73 792.41,484.73 793.27,484.73 794.14,484.73 795.00,484.73 795.86,484.73 796.72,484.73 797.59,484.73 798.45,484.73 799.31,484.73 800.18,484.73 801.04,484.73 801.90,484.73 802.76,484.73 803.63,484.73 804.49,484.73 805.35,484.73 806.22,484.73 807.08,484.73 807.94,484.73 808.80,484.73 809.67,484.73 810.53,484.73 811.39,484.73 812.26,484.73 813.12,484.73 813.98,484.73 814.84,484.73 815.71,484.73 816.57,484.73 817.43,484.73 818.30,484.73 819.16,484.73 820.02,484.73 820.88,484.73 821.75,484.73 822.61,484.73 823.47,484.73 824.34,484.73 825.20,484.73 826.06,484.73 826.92,484.73 827.79,484.73 828.65,484.73 829.51,484.73 830.38,484.73 831.24,484.73 832.10,484.73 832.96,484.73 833.83,484.73 834.69,484.73 835.55,484.73 836.42,484.73 837.28,484.73 838.14,484.73 839.01,484.73 839.87,484.73 840.73,484.73 841.59,484.73 842.46,484.73 843.32,484.73 844.18,484.73 845.05,484.72 845.91,484.72 846.77,484.72 847.63,484.72 848.50,484.72 849.36,484.72 850.22,484.72 851.09,484.72 851.95,484.72 852.81,484.72 853.67,484.72 854.54,484.72 855.40,484.72 856.26,484.72 857.13,484.72 857.99,484.72 858.85,484.72 859.71,484.72 860.58,484.72 861.44,484.72 862.30,484.72 863.17,484.72 864.03,484.72 864.89,484.72 865.75,484.72 866.62,484.72 867.48,484.72 868.34,484.72 869.21,484.72 870.07,484.72 870.93,484.72 871.79,484.72 872.66,484.72 873.52,484.72 874.38,484.72 875.25,484.72 876.11,484.72 876.97,484.72 877.83,484.72 878.70,484.72 879.56,484.72 880.42,484.72 881.29,484.72 882.15,484.72 883.01,484.72 883.87,484.72 884.74,484.72 885.60,484.72 886.46,484.72 887.33,484.72 888.19,484.72 889.05,484.72 889.91,484.72 890.78,484.72 891.64,484.72 892.50,484.72 893.37,484.72 894.23,484.72 895.09,484.72 895.95,484.72 896.82,484.72 897.68,484.72 898.54,484.72 899.41,484.72 900.27,484.72 901.13,484.72 901.99,484.72 902.86,484.72 903.72,484.72 904.58,484.72 905.45,484.72 906.31,484.72 907.17,484.72 908.03,484.72 908.90,484.72 909.76,484.72 910.62,484.72 911.49,484.72 912.35,484.72 913.21,484.72 914.07,484.72 914.94,484.72 915.80,484.72 916.66,484.72 917.53,484.72 918.39,484.72 919.25,484.72 920.11,484.72 920.98,484.72 921.84,484.72 922.70,484.72 923.57,484.72 924.43,484.72 925.29,484.72 926.15,484.72 927.02,484.72 927.88,484.72 928.74,484.72 929.61,484.72 930.47,484.72 931.33,484.72 932.19,484.72 933.06,484.72 933.92,484.72 934.78,484.72 935.65,484.72 936.51,484.72 937.37,484.72 938.23,484.72 939.10,484.72 939.96,484.72 940.82,484.72 941.69,484.72 942.55,484.72 943.41,484.72 944.27,484.72 945.14,484.72 946.00,484.72" />
  <circle cx="946.00" cy="484.72" r="4.5" fill="#00ADD8" />
  <text x="938.00" y="472.72" text-anchor="end"
        font-family="Menlo, Monaco, monospace" font-size="12" fill="#00ADD8">final 0.0247</text>

  <text x="84" y="30" font-family="Avenir Next, Helvetica, Arial, sans-serif" font-size="24" fill="#19202D">Go Loss Convergence</text>
  <text x="84" y="48" font-family="Menlo, Monaco, monospace" font-size="13" fill="#4C5566">initial=7.9454  final=0.0247  reduction=99.69%  steps=1000</text>
  <text x="515.00" y="540" text-anchor="middle" font-family="Menlo, Monaco, monospace" font-size="12" fill="#6B7380">training step</text>
  <text x="20" y="270.00" transform="rotate(-90 20 270.00)" text-anchor="middle" font-family="Menlo, Monaco, monospace" font-size="12" fill="#6B7380">loss</text>
</svg>
