<svg xmlns="http://www.w3.org/2000/svg" width="980" height="560" viewBox="0 0 980 560" role="img" aria-label="julia loss convergence">
  <rect width="100%" height="100%" fill="#FCFCFE" />
  <rect x="84" y="54" width="862" height="432" fill="#FFFFFF" stroke="#D7DCE5" stroke-width="1" rx="8" />
  <line x1="84" y1="486.00" x2="946" y2="486.00" stroke="#E7E9EF" stroke-width="1" /><text x="74" y="491.00" text-anchor="end" font-family="Menlo, Monaco, monospace" font-size="12" fill="#6B7380">0.00</text><line x1="84" y1="399.60" x2="946" y2="399.60" stroke="#E7E9EF" stroke-width="1" /><text x="74" y="404.60" text-anchor="end" font-family="Menlo, Monaco, monospace" font-size="12" fill="#6B7380">1.52</text><line x1="84" y1="313.20" x2="946" y2="313.20" stroke="#E7E9EF" stroke-width="1" /><text x="74" y="318.20" text-anchor="end" font-family="Menlo, Monaco, monospace" font-size="12" fill="#6B7380">3.04</text><line x1="84" y1="226.80" x2="946" y2="226.80" stroke="#E7E9EF" stroke-width="1" /><text x="74" y="231.80" text-anchor="end" font-family="Menlo, Monaco, monospace" font-size="12" fill="#6B7380">4.56</text><line x1="84" y1="140.40" x2="946" y2="140.40" stroke="#E7E9EF" stroke-width="1" /><text x="74" y="145.40" text-anchor="end" font-family="Menlo, Monaco, monospace" font-size="12" fill="#6B7380">6.09</text><line x1="84" y1="54.00" x2="946" y2="54.00" stroke="#E7E9EF" stroke-width="1" /><text x="74" y="59.00" text-anchor="end" font-family="Menlo, Monaco, monospace" font-size="12" fill="#6B7380">7.61</text>
  <line x1="84" y1="486" x2="946" y2="486" stroke="#9FA8B8" stroke-width="1.2" />
  <line x1="84.00" y1="486" x2="84.00" y2="492" stroke="#B8C0CC" stroke-width="1" /><text x="84.00" y="510" text-anchor="middle" font-family="Menlo, Monaco, monospace" font-size="12" fill="#6B7380">0</text><line x1="256.57" y1="486" x2="256.57" y2="492" stroke="#B8C0CC" stroke-width="1" /><text x="256.57" y="510" text-anchor="middle" font-family="Menlo, Monaco, monospace" font-size="12" fill="#6B7380">200</text><line x1="429.15" y1="486" x2="429.15" y2="492" stroke="#B8C0CC" stroke-width="1" /><text x="429.15" y="510" text-anchor="middle" font-family="Menlo, Monaco, monospace" font-size="12" fill="#6B7380">400</text><line x1="601.72" y1="486" x2="601.72" y2="492" stroke="#B8C0CC" stroke-width="1" /><text x="601.72" y="510" text-anchor="middle" font-family="Menlo, Monaco, monospace" font-size="12" fill="#6B7380">600</text><line x1="774.29" y1="486" x2="774.29" y2="492" stroke="#B8C0CC" stroke-width="1" /><text x="774.29" y="510" text-anchor="middle" font-family="Menlo, Monaco, monospace" font-size="12" fill="#6B7380">800</text><line x1="946.00" y1="486" x2="946.00" y2="492" stroke="#B8C0CC" stroke-width="1" /><text x="946.00" y="510" text-anchor="middle" font-family="Menlo, Monaco, monospace" font-size="12" fill="#6B7380">999</text>

  <polyline fill="none" stroke="#9558B2" stroke-opacity="0.28" stroke-width="1.4" points="84.00,74.57 84.86,86.32 85.73,109.25 86.59,140.94 87.45,176.26 88.31,202.62 89.18,236.31 90.04,267.96 90.90,296.66 91.77,323.61 92.63,347.78 93.49,366.99 94.35,378.68 95.22,397.92 96.08,414.09 96.94,427.29 97.81,437.49 98.67,443.41 99.53,450.20 100.39,455.36 101.26,459.91 102.12,463.58 102.98,465.15 103.85,467.96 104.71,467.85 105.57,470.21 106.43,470.08 107.30,474.11 108.16,475.79 109.02,476.78 109.89,477.61 110.75,478.36 111.61,479.00 112.47,479.56 113.34,480.04 114.20,480.45 115.06,480.81 115.93,481.11 116.79,481.43 117.65,481.66 118.51,481.87 119.38,482.05 120.24,482.22 121.10,482.37 121.97,482.50 122.83,482.62 123.69,482.73 124.55,482.83 125.42,482.92 126.28,483.00 127.14,483.08 128.01,483.15 128.87,483.21 129.73,483.27 130.59,483.33 131.46,483.38 132.32,483.42 133.18,483.47 134.05,483.50 134.91,483.54 135.77,483.58 136.63,483.62 137.50,483.65 138.36,483.68 139.22,483.71 140.09,483.74 140.95,483.77 141.81,483.79 142.67,483.82 143.54,483.84 144.40,483.87 145.26,483.89 146.13,483.91 146.99,483.93 147.85,483.95 148.71,483.97 149.58,483.99 150.44,484.01 151.30,484.03 152.17,484.04 153.03,484.06 153.89,484.08 154.75,484.09 155.62,484.11 156.48,484.12 157.34,484.14 158.21,484.15 159.07,484.16 159.93,484.18 160.79,484.19 161.66,484.20 162.52,484.22 163.38,484.23 164.25,484.24 165.11,484.25 165.97,484.26 166.83,484.27 167.70,484.29 168.56,484.30 169.42,484.31 170.29,484.32 171.15,484.33 172.01,484.34 172.87,484.35 173.74,484.36 174.60,484.37 175.46,484.37 176.33,484.38 177.19,484.38 178.05,484.39 178.91,484.40 179.78,484.41 180.64,484.42 181.50,484.42 182.37,484.43 183.23,484.44 184.09,484.45 184.95,484.45 185.82,484.46 186.68,484.47 187.54,484.48 188.41,484.48 189.27,484.49 190.13,484.50 190.99,484.50 191.86,484.51 192.72,484.52 193.58,484.52 194.45,484.53 195.31,484.53 196.17,484.54 197.04,484.55 197.90,484.55 198.76,484.56 199.62,484.56 200.49,484.57 201.35,484.57 202.21,484.58 203.08,484.58 203.94,484.59 204.80,484.59 205.66,484.60 206.53,484.60 207.39,484.61 208.25,484.61 209.12,484.62 209.98,484.62 210.84,484.45 211.70,484.49 212.57,484.52 213.43,484.56 214.29,484.59 215.16,484.61 216.02,484.62 216.88,484.63 217.74,484.64 218.61,484.64 219.47,484.65 220.33,484.65 221.20,484.65 222.06,484.66 222.92,484.66 223.78,484.67 224.65,484.68 225.51,484.68 226.37,484.68 227.24,484.69 228.10,484.69 228.96,484.69 229.82,484.70 230.69,484.70 231.55,484.70 232.41,484.71 233.28,484.71 234.14,484.71 235.00,484.71 235.86,484.72 236.73,484.72 237.59,484.72 238.45,484.72 239.32,484.73 240.18,484.73 241.04,484.73 241.90,484.73 242.77,484.73 243.63,484.74 244.49,484.74 245.36,484.74 246.22,484.74 247.08,484.74 247.94,484.74 248.81,484.75 249.67,484.75 250.53,484.75 251.40,484.75 252.26,484.75 253.12,484.75 253.98,484.76 254.85,484.76 255.71,484.76 256.57,484.76 257.44,484.76 258.30,484.76 259.16,484.77 260.02,484.77 260.89,484.77 261.75,484.77 262.61,484.77 263.48,484.77 264.34,484.77 265.20,484.77 266.06,484.77 266.93,484.78 267.79,484.78 268.65,484.78 269.52,484.78 270.38,484.78 271.24,484.78 272.10,484.78 272.97,484.78 273.83,484.78 274.69,484.78 275.56,484.78 276.42,484.78 277.28,484.79 278.14,484.79 279.01,484.79 279.87,484.79 280.73,484.79 281.60,484.79 282.46,484.79 283.32,484.79 284.18,484.79 285.05,484.79 285.91,484.79 286.77,484.79 287.64,484.79 288.50,484.79 289.36,484.79 290.22,484.79 291.09,484.80 291.95,484.80 292.81,484.80 293.68,484.80 294.54,484.80 295.40,484.80 296.26,484.80 297.13,484.80 297.99,484.80 298.85,484.80 299.72,484.80 300.58,484.80 301.44,484.80 302.30,484.80 303.17,484.80 304.03,484.80 304.89,484.80 305.76,484.80 306.62,484.80 307.48,484.80 308.34,484.80 309.21,484.80 310.07,484.80 310.93,484.80 311.80,484.80 312.66,484.80 313.52,484.80 314.38,484.81 315.25,484.81 316.11,484.81 316.97,484.81 317.84,484.81 318.70,484.81 319.56,484.81 320.42,484.81 321.29,484.81 322.15,484.81 323.01,484.81 323.88,484.81 324.74,484.81 325.60,484.81 326.46,484.81 327.33,484.81 328.19,484.81 329.05,484.81 329.92,484.81 330.78,484.81 331.64,484.81 332.50,484.81 333.37,484.81 334.23,484.81 335.09,484.81 335.96,484.81 336.82,484.81 337.68,484.81 338.54,484.81 339.41,484.81 340.27,484.81 341.13,484.81 342.00,484.81 342.86,484.81 343.72,484.81 344.58,484.81 345.45,484.81 346.31,484.81 347.17,484.81 348.04,484.81 348.90,484.81 349.76,484.81 350.62,484.79 351.49,484.79 352.35,484.79 353.21,484.79 354.08,484.79 354.94,484.79 355.80,484.79 356.66,484.79 357.53,484.79 358.39,484.79 359.25,484.79 360.12,484.79 360.98,484.79 361.84,484.79 362.70,484.79 363.57,484.79 364.43,484.79 365.29,484.79 366.16,484.79 367.02,484.79 367.88,484.79 368.74,484.79 369.61,484.79 370.47,484.79 371.33,484.79 372.20,484.80 373.06,484.80 373.92,484.80 374.78,484.80 375.65,484.80 376.51,484.80 377.37,484.80 378.24,484.80 379.10,484.80 379.96,484.80 380.82,484.80 381.69,484.80 382.55,484.80 383.41,484.80 384.28,484.80 385.14,484.80 386.00,484.80 386.86,484.80 387.73,484.80 388.59,484.80 389.45,484.80 390.32,484.80 391.18,484.80 392.04,484.80 392.90,484.80 393.77,484.80 394.63,484.80 395.49,484.80 396.36,484.80 397.22,484.80 398.08,484.80 398.94,484.80 399.81,484.80 400.67,484.80 401.53,484.80 402.40,484.80 403.26,484.80 404.12,484.80 404.98,484.80 405.85,484.80 406.71,484.80 407.57,484.80 408.44,484.80 409.30,484.81 410.16,484.81 411.03,484.81 411.89,484.81 412.75,484.80 413.61,484.78 414.48,484.81 415.34,484.81 416.20,484.80 417.07,484.80 417.93,484.80 418.79,484.80 419.65,484.80 420.52,484.80 421.38,484.80 422.24,484.80 423.11,484.80 423.97,484.80 424.83,484.80 425.69,484.81 426.56,484.81 427.42,484.81 428.28,484.81 429.15,484.81 430.01,484.81 430.87,484.81 431.73,484.80 432.60,484.81 433.46,484.81 434.32,484.81 435.19,484.81 436.05,484.81 436.91,484.81 437.77,484.81 438.64,484.81 439.50,484.81 440.36,484.81 441.23,484.81 442.09,484.81 442.95,484.81 443.81,484.81 444.68,484.81 445.54,484.81 446.40,484.81 447.27,484.81 448.13,484.81 448.99,484.81 449.85,484.81 450.72,484.80 451.58,484.80 452.44,484.80 453.31,484.80 454.17,484.80 455.03,484.80 455.89,484.80 456.76,484.80 457.62,484.80 458.48,484.80 459.35,484.80 460.21,484.80 461.07,484.80 461.93,484.80 462.80,484.80 463.66,484.80 464.52,484.80 465.39,484.80 466.25,484.80 467.11,484.80 467.97,484.81 468.84,484.81 469.70,484.81 470.56,484.81 471.43,484.81 472.29,484.81 473.15,484.81 474.01,484.82 474.88,484.82 475.74,484.82 476.60,484.82 477.47,484.82 478.33,484.82 479.19,484.82 480.05,484.82 480.92,484.82 481.78,484.82 482.64,484.82 483.51,484.82 484.37,484.82 485.23,484.82 486.09,484.82 486.96,484.82 487.82,484.82 488.68,484.82 489.55,484.82 490.41,484.82 491.27,484.82 492.13,484.82 493.00,484.82 493.86,484.82 494.72,484.82 495.59,484.82 496.45,484.82 497.31,484.82 498.17,484.82 499.04,484.82 499.90,484.82 500.76,484.82 501.63,484.82 502.49,484.82 503.35,484.82 504.21,484.82 505.08,484.82 505.94,484.82 506.80,484.82 507.67,484.82 508.53,484.82 509.39,484.82 510.25,484.83 511.12,484.83 511.98,484.83 512.84,484.83 513.71,484.83 514.57,484.83 515.43,484.83 516.29,484.83 517.16,484.83 518.02,484.83 518.88,484.83 519.75,484.83 520.61,484.83 521.47,484.83 522.33,484.83 523.20,484.83 524.06,484.83 524.92,484.83 525.79,484.83 526.65,484.83 527.51,484.83 528.37,484.83 529.24,484.83 530.10,484.83 530.96,484.83 531.83,484.83 532.69,484.83 533.55,484.83 534.41,484.83 535.28,484.83 536.14,484.83 537.00,484.83 537.87,484.83 538.73,484.83 539.59,484.83 540.45,484.83 541.32,484.83 542.18,484.83 543.04,484.83 543.91,484.83 544.77,484.82 545.63,484.82 546.49,484.82 547.36,484.82 548.22,484.82 549.08,484.82 549.95,484.82 550.81,484.82 551.67,484.82 552.53,484.82 553.40,484.82 554.26,484.82 555.12,484.81 555.99,484.81 556.85,484.81 557.71,484.81 558.57,484.81 559.44,484.81 560.30,484.81 561.16,484.81 562.03,484.81 562.89,484.81 563.75,484.81 564.61,472.94 565.48,484.81 566.34,484.81 567.20,484.81 568.07,484.81 568.93,484.81 569.79,484.81 570.65,484.81 571.52,484.81 572.38,484.81 573.24,484.81 574.11,484.81 574.97,484.81 575.83,484.82 576.69,484.82 577.56,484.82 578.42,484.82 579.28,484.82 580.15,484.82 581.01,484.82 581.87,484.82 582.73,484.82 583.60,484.82 584.46,484.82 585.32,484.82 586.19,484.82 587.05,484.82 587.91,484.82 588.77,484.82 589.64,484.82 590.50,484.82 591.36,484.82 592.23,484.82 593.09,484.82 593.95,484.82 594.81,484.82 595.68,484.82 596.54,484.82 597.40,484.82 598.27,484.82 599.13,484.82 599.99,484.82 600.85,484.82 601.72,484.82 602.58,484.82 603.44,484.82 604.31,484.82 605.17,484.82 606.03,484.82 606.89,484.82 607.76,484.82 608.62,484.82 609.48,484.82 610.35,484.82 611.21,484.82 612.07,484.82 612.93,484.82 613.80,484.82 614.66,484.82 615.52,484.82 616.39,484.82 617.25,484.82 618.11,484.82 618.97,484.82 619.84,484.82 620.70,484.82 621.56,484.82 622.43,484.82 623.29,484.82 624.15,484.82 625.02,484.82 625.88,484.82 626.74,484.82 627.60,484.82 628.47,484.82 629.33,484.82 630.19,484.82 631.06,484.82 631.92,484.82 632.78,484.82 633.64,484.82 634.51,484.82 635.37,484.82 636.23,484.82 637.10,484.82 637.96,484.82 638.82,484.82 639.68,484.82 640.55,484.82 641.41,484.82 642.27,484.82 643.14,484.82 644.00,484.82 644.86,484.82 645.72,484.82 646.59,484.82 647.45,484.82 648.31,484.82 649.18,484.82 650.04,484.82 650.90,484.82 651.76,484.82 652.63,484.82 653.49,484.82 654.35,484.82 655.22,484.82 656.08,484.82 656.94,484.82 657.80,484.82 658.67,484.82 659.53,484.82 660.39,484.82 661.26,484.82 662.12,484.82 662.98,484.82 663.84,484.82 664.71,484.82 665.57,484.82 666.43,484.82 667.30,484.82 668.16,484.82 669.02,484.82 669.88,484.82 670.75,484.82 671.61,484.82 672.47,484.82 673.34,484.82 674.20,484.82 675.06,484.82 675.92,484.82 676.79,484.82 677.65,484.82 678.51,484.82 679.38,484.82 680.24,484.82 681.10,484.82 681.96,484.82 682.83,484.82 683.69,484.82 684.55,484.82 685.42,484.82 686.28,484.82 687.14,484.82 688.00,484.82 688.87,484.82 689.73,484.82 690.59,484.82 691.46,484.82 692.32,484.82 693.18,484.82 694.04,484.82 694.91,484.82 695.77,484.82 696.63,484.82 697.50,484.82 698.36,484.82 699.22,484.82 700.08,484.82 700.95,484.81 701.81,484.81 702.67,484.81 703.54,484.81 704.40,484.81 705.26,484.81 706.12,484.81 706.99,484.81 707.85,484.81 708.71,484.81 709.58,484.82 710.44,484.82 711.30,484.82 712.16,484.82 713.03,484.82 713.89,484.82 714.75,484.82 715.62,484.82 716.48,484.82 717.34,484.82 718.20,484.82 719.07,484.82 719.93,484.82 720.79,484.82 721.66,484.82 722.52,484.82 723.38,484.82 724.24,484.82 725.11,484.82 725.97,484.82 726.83,484.82 727.70,484.82 728.56,484.82 729.42,484.82 730.28,484.82 731.15,484.82 732.01,484.82 732.87,484.82 733.74,484.82 734.60,484.82 735.46,484.82 736.32,484.82 737.19,484.82 738.05,484.82 738.91,484.82 739.78,484.82 740.64,484.82 741.50,484.82 742.36,484.82 743.23,484.82 744.09,484.82 744.95,484.82 745.82,484.82 746.68,484.82 747.54,484.82 748.40,484.82 749.27,484.82 750.13,484.82 750.99,484.82 751.86,484.82 752.72,484.82 753.58,484.82 754.44,484.82 755.31,484.82 756.17,484.82 757.03,484.82 757.90,484.82 758.76,484.82 759.62,484.82 760.48,484.82 761.35,484.82 762.21,484.82 763.07,484.82 763.94,484.82 764.80,484.82 765.66,484.82 766.52,484.82 767.39,484.82 768.25,484.82 769.11,484.82 769.98,484.82 770.84,484.82 771.70,484.82 772.56,484.82 773.43,484.82 774.29,484.82 775.15,484.82 776.02,484.82 776.88,484.82 777.74,484.82 778.60,484.82 779.47,484.82 780.33,484.82 781.19,484.82 782.06,484.82 782.92,484.82 783.78,484.82 784.64,484.82 785.51,484.82 786.37,484.82 787.23,484.82 788.10,484.82 788.96,484.82 789.82,484.82 790.68,484.82 791.55,484.82 792.41,484.82 793.27,484.82 794.14,484.82 795.00,484.82 795.86,484.82 796.72,484.82 797.59,484.82 798.45,484.82 799.31,484.82 800.18,484.83 801.04,484.83 801.90,484.83 802.76,484.83 803.63,484.83 804.49,484.83 805.35,484.83 806.22,484.83 807.08,484.83 807.94,484.83 808.80,484.83 809.67,484.83 810.53,484.83 811.39,484.83 812.26,484.83 813.12,484.83 813.98,484.83 814.84,484.83 815.71,484.83 816.57,484.83 817.43,484.83 818.30,484.83 819.16,484.83 820.02,484.83 820.88,484.83 821.75,484.83 822.61,484.83 823.47,484.83 824.34,484.83 825.20,484.83 826.06,484.83 826.92,484.83 827.79,484.83 828.65,484.83 829.51,484.83 830.38,484.83 831.24,484.83 832.10,484.83 832.96,484.83 833.83,484.83 834.69,484.83 835.55,484.83 836.42,484.83 837.28,484.83 838.14,484.83 839.01,484.83 839.87,484.83 840.73,484.83 841.59,484.83 842.46,484.83 843.32,484.83 844.18,484.83 845.05,484.83 845.91,484.83 846.77,484.83 847.63,484.83 848.50,484.83 849.36,484.83 850.22,484.83 851.09,484.83 851.95,484.83 852.81,484.83 853.67,484.83 854.54,484.83 855.40,484.83 856.26,484.83 857.13,484.83 857.99,484.83 858.85,484.83 859.71,484.83 860.58,484.83 861.44,484.83 862.30,484.83 863.17,484.83 864.03,484.83 864.89,484.83 865.75,484.83 866.62,484.83 867.48,484.83 868.34,484.83 869.21,484.83 870.07,484.83 870.93,484.83 871.79,484.83 872.66,484.83 873.52,484.83 874.38,484.83 875.25,484.83 876.11,484.83 876.97,484.83 877.83,484.83 878.70,484.83 879.56,484.83 880.42,484.83 881.29,484.83 882.15,484.83 883.01,484.83 883.87,484.83 884.74,484.83 885.60,484.83 886.46,484.83 887.33,484.83 888.19,484.83 889.05,484.83 889.91,484.83 890.78,484.83 891.64,484.83 892.50,484.83 893.37,484.83 894.23,484.83 895.09,484.83 895.95,484.83 896.82,484.83 897.68,484.83 898.54,484.83 899.41,484.83 900.27,484.83 901.13,484.83 901.99,484.82 902.86,484.82 903.72,484.82 904.58,484.82 905.45,484.82 906.31,484.82 907.17,484.83 908.03,484.83 908.90,484.83 909.76,484.83 910.62,484.83 911.49,484.82 912.35,484.82 913.21,484.82 914.07,484.82 914.94,484.82 915.80,484.82 916.66,484.82 917.53,484.82 918.39,484.82 919.25,484.82 920.11,484.82 920.98,484.82 921.84,484.82 922.70,484.82 923.57,484.82 924.43,484.82 925.29,484.82 926.15,484.82 927.02,484.82 927.88,484.82 928.74,484.82 929.61,484.82 930.47,484.82 931.33,484.82 932.19,484.82 933.06,484.82 933.92,484.82 934.78,484.82 935.65,484.82 936.51,484.82 937.37,484.82 938.23,484.82 939.10,484.82 939.96,484.82 940.82,484.82 941.69,484.82 942.55,484.82 943.41,484.82 944.27,484.82 945.14,484.82 946.00,484.82" />
  <polyline fill="none" stroke="#9558B2" stroke-width="3" points="84.00,74.57 84.86,80.45 85.73,90.05 86.59,102.77 87.45,117.47 88.31,131.66 89.18,146.61 90.04,161.78 90.90,176.77 91.77,191.45 92.63,205.66 93.49,219.11 94.35,231.38 95.22,243.28 96.08,254.66 96.94,265.45 97.81,275.57 98.67,284.90 99.53,293.60 100.39,301.69 101.26,309.22 102.12,316.24 102.98,322.71 103.85,328.76 104.71,334.33 105.57,350.15 106.43,365.50 107.30,380.10 108.16,393.49 109.02,405.51 109.89,416.51 110.75,426.19 111.61,434.64 112.47,441.95 113.34,448.21 114.20,453.52 115.06,458.07 115.93,462.16 116.79,465.51 117.65,468.21 118.51,470.39 119.38,472.17 120.24,473.73 121.10,475.01 121.97,476.10 122.83,477.01 123.69,477.77 124.55,478.48 125.42,479.08 126.28,479.68 127.14,480.20 128.01,480.72 128.87,481.09 129.73,481.38 130.59,481.65 131.46,481.88 132.32,482.08 133.18,482.26 134.05,482.42 134.91,482.56 135.77,482.68 136.63,482.79 137.50,482.90 138.36,482.99 139.22,483.07 140.09,483.14 140.95,483.21 141.81,483.27 142.67,483.33 143.54,483.39 144.40,483.44 145.26,483.48 146.13,483.53 146.99,483.57 147.85,483.60 148.71,483.64 149.58,483.67 150.44,483.70 151.30,483.74 152.17,483.76 153.03,483.79 153.89,483.82 154.75,483.84 155.62,483.87 156.48,483.89 157.34,483.91 158.21,483.93 159.07,483.95 159.93,483.97 160.79,483.99 161.66,484.01 162.52,484.03 163.38,484.05 164.25,484.06 165.11,484.08 165.97,484.10 166.83,484.11 167.70,484.13 168.56,484.14 169.42,484.15 170.29,484.17 171.15,484.18 172.01,484.20 172.87,484.21 173.74,484.22 174.60,484.23 175.46,484.24 176.33,484.26 177.19,484.27 178.05,484.28 178.91,484.29 179.78,484.30 180.64,484.31 181.50,484.32 182.37,484.33 183.23,484.34 184.09,484.35 184.95,484.36 185.82,484.37 186.68,484.37 187.54,484.38 188.41,484.39 189.27,484.40 190.13,484.41 190.99,484.42 191.86,484.42 192.72,484.43 193.58,484.44 194.45,484.45 195.31,484.45 196.17,484.46 197.04,484.47 197.90,484.47 198.76,484.48 199.62,484.49 200.49,484.49 201.35,484.50 202.21,484.51 203.08,484.51 203.94,484.52 204.80,484.53 205.66,484.53 206.53,484.54 207.39,484.54 208.25,484.55 209.12,484.56 209.98,484.56 210.84,484.56 211.70,484.56 212.57,484.56 213.43,484.56 214.29,484.56 215.16,484.57 216.02,484.57 216.88,484.58 217.74,484.58 218.61,484.58 219.47,484.59 220.33,484.59 221.20,484.59 222.06,484.60 222.92,484.60 223.78,484.60 224.65,484.61 225.51,484.61 226.37,484.62 227.24,484.62 228.10,484.62 228.96,484.63 229.82,484.63 230.69,484.63 231.55,484.64 232.41,484.65 233.28,484.66 234.14,484.66 235.00,484.67 235.86,484.67 236.73,484.68 237.59,484.68 238.45,484.69 239.32,484.69 240.18,484.69 241.04,484.70 241.90,484.70 242.77,484.70 243.63,484.71 244.49,484.71 245.36,484.71 246.22,484.71 247.08,484.72 247.94,484.72 248.81,484.72 249.67,484.72 250.53,484.73 251.40,484.73 252.26,484.73 253.12,484.73 253.98,484.73 254.85,484.74 255.71,484.74 256.57,484.74 257.44,484.74 258.30,484.74 259.16,484.75 260.02,484.75 260.89,484.75 261.75,484.75 262.61,484.75 263.48,484.75 264.34,484.76 265.20,484.76 266.06,484.76 266.93,484.76 267.79,484.76 268.65,484.76 269.52,484.76 270.38,484.77 271.24,484.77 272.10,484.77 272.97,484.77 273.83,484.77 274.69,484.77 275.56,484.77 276.42,484.77 277.28,484.77 278.14,484.78 279.01,484.78 279.87,484.78 280.73,484.78 281.60,484.78 282.46,484.78 283.32,484.78 284.18,484.78 285.05,484.78 285.91,484.78 286.77,484.78 287.64,484.78 288.50,484.79 289.36,484.79 290.22,484.79 291.09,484.79 291.95,484.79 292.81,484.79 293.68,484.79 294.54,484.79 295.40,484.79 296.26,484.79 297.13,484.79 297.99,484.79 298.85,484.79 299.72,484.79 300.58,484.79 301.44,484.79 302.30,484.80 303.17,484.80 304.03,484.80 304.89,484.80 305.76,484.80 306.62,484.80 307.48,484.80 308.34,484.80 309.21,484.80 310.07,484.80 310.93,484.80 311.80,484.80 312.66,484.80 313.52,484.80 314.38,484.80 315.25,484.80 316.11,484.80 316.97,484.80 317.84,484.80 318.70,484.80 319.56,484.80 320.42,484.80 321.29,484.80 322.15,484.80 323.01,484.80 323.88,484.80 324.74,484.81 325.60,484.81 326.46,484.81 327.33,484.81 328.19,484.81 329.05,484.81 329.92,484.81 330.78,484.81 331.64,484.81 332.50,484.81 333.37,484.81 334.23,484.81 335.09,484.81 335.96,484.81 336.82,484.81 337.68,484.81 338.54,484.81 339.41,484.81 340.27,484.81 341.13,484.81 342.00,484.81 342.86,484.81 343.72,484.81 344.58,484.81 345.45,484.81 346.31,484.81 347.17,484.81 348.04,484.81 348.90,484.81 349.76,484.81 350.62,484.81 351.49,484.81 352.35,484.81 353.21,484.81 354.08,484.81 354.94,484.81 355.80,484.81 356.66,484.80 357.53,484.80 358.39,484.80 359.25,484.80 360.12,484.80 360.98,484.80 361.84,484.80 362.70,484.80 363.57,484.80 364.43,484.80 365.29,484.80 366.16,484.80 367.02,484.80 367.88,484.80 368.74,484.79 369.61,484.79 370.47,484.79 371.33,484.79 372.20,484.79 373.06,484.79 373.92,484.79 374.78,484.79 375.65,484.79 376.51,484.79 377.37,484.79 378.24,484.79 379.10,484.79 379.96,484.79 380.82,484.80 381.69,484.80 382.55,484.80 383.41,484.80 384.28,484.80 385.14,484.80 386.00,484.80 386.86,484.80 387.73,484.80 388.59,484.80 389.45,484.80 390.32,484.80 391.18,484.80 392.04,484.80 392.90,484.80 393.77,484.80 394.63,484.80 395.49,484.80 396.36,484.80 397.22,484.80 398.08,484.80 398.94,484.80 399.81,484.80 400.67,484.80 401.53,484.80 402.40,484.80 403.26,484.80 404.12,484.80 404.98,484.80 405.85,484.80 406.71,484.80 407.57,484.80 408.44,484.80 409.30,484.80 410.16,484.80 411.03,484.80 411.89,484.80 412.75,484.80 413.61,484.80 414.48,484.80 415.34,484.80 416.20,484.80 417.07,484.80 417.93,484.80 418.79,484.80 419.65,484.80 420.52,484.80 421.38,484.80 422.24,484.80 423.11,484.80 423.97,484.80 424.83,484.80 425.69,484.80 426.56,484.80 427.42,484.80 428.28,484.80 429.15,484.80 430.01,484.80 430.87,484.80 431.73,484.80 432.60,484.80 433.46,484.80 434.32,484.80 435.19,484.80 436.05,484.80 436.91,484.80 437.77,484.80 438.64,484.80 439.50,484.80 440.36,484.80 441.23,484.81 442.09,484.81 442.95,484.81 443.81,484.81 444.68,484.81 445.54,484.81 446.40,484.81 447.27,484.81 448.13,484.81 448.99,484.81 449.85,484.81 450.72,484.81 451.58,484.81 452.44,484.81 453.31,484.81 454.17,484.81 455.03,484.81 455.89,484.81 456.76,484.81 457.62,484.81 458.48,484.81 459.35,484.81 460.21,484.81 461.07,484.81 461.93,484.81 462.80,484.81 463.66,484.81 464.52,484.81 465.39,484.81 466.25,484.80 467.11,484.80 467.97,484.80 468.84,484.80 469.70,484.80 470.56,484.80 471.43,484.80 472.29,484.81 473.15,484.81 474.01,484.81 474.88,484.81 475.74,484.81 476.60,484.81 477.47,484.81 478.33,484.81 479.19,484.81 480.05,484.81 480.92,484.81 481.78,484.81 482.64,484.81 483.51,484.81 484.37,484.81 485.23,484.81 486.09,484.81 486.96,484.81 487.82,484.81 488.68,484.82 489.55,484.82 490.41,484.82 491.27,484.82 492.13,484.82 493.00,484.82 493.86,484.82 494.72,484.82 495.59,484.82 496.45,484.82 497.31,484.82 498.17,484.82 499.04,484.82 499.90,484.82 500.76,484.82 501.63,484.82 502.49,484.82 503.35,484.82 504.21,484.82 505.08,484.82 505.94,484.82 506.80,484.82 507.67,484.82 508.53,484.82 509.39,484.82 510.25,484.82 511.12,484.82 511.98,484.82 512.84,484.82 513.71,484.82 514.57,484.82 515.43,484.82 516.29,484.82 517.16,484.82 518.02,484.82 518.88,484.82 519.75,484.82 520.61,484.82 521.47,484.82 522.33,484.82 523.20,484.82 524.06,484.82 524.92,484.83 525.79,484.83 526.65,484.83 527.51,484.83 528.37,484.83 529.24,484.83 530.10,484.83 530.96,484.83 531.83,484.83 532.69,484.83 533.55,484.83 534.41,484.83 535.28,484.83 536.14,484.83 537.00,484.83 537.87,484.83 538.73,484.83 539.59,484.83 540.45,484.83 541.32,484.83 542.18,484.83 543.04,484.83 543.91,484.83 544.77,484.83 545.63,484.83 546.49,484.83 547.36,484.83 548.22,484.83 549.08,484.83 549.95,484.83 550.81,484.83 551.67,484.83 552.53,484.83 553.40,484.83 554.26,484.83 555.12,484.83 555.99,484.82 556.85,484.82 557.71,484.82 558.57,484.82 559.44,484.82 560.30,484.82 561.16,484.82 562.03,484.82 562.89,484.82 563.75,484.82 564.61,484.34 565.48,484.34 566.34,484.34 567.20,484.34 568.07,484.34 568.93,484.34 569.79,484.34 570.65,484.34 571.52,484.34 572.38,484.34 573.24,484.34 574.11,484.34 574.97,484.34 575.83,484.34 576.69,484.34 577.56,484.34 578.42,484.34 579.28,484.34 580.15,484.34 581.01,484.34 581.87,484.34 582.73,484.34 583.60,484.34 584.46,484.34 585.32,484.34 586.19,484.82 587.05,484.82 587.91,484.82 588.77,484.82 589.64,484.82 590.50,484.82 591.36,484.82 592.23,484.82 593.09,484.82 593.95,484.82 594.81,484.82 595.68,484.82 596.54,484.82 597.40,484.82 598.27,484.82 599.13,484.82 599.99,484.82 600.85,484.82 601.72,484.82 602.58,484.82 603.44,484.82 604.31,484.82 605.17,484.82 606.03,484.82 606.89,484.82 607.76,484.82 608.62,484.82 609.48,484.82 610.35,484.82 611.21,484.82 612.07,484.82 612.93,484.82 613.80,484.82 614.66,484.82 615.52,484.82 616.39,484.82 617.25,484.82 618.11,484.82 618.97,484.82 619.84,484.82 620.70,484.82 621.56,484.82 622.43,484.82 623.29,484.82 624.15,484.82 625.02,484.82 625.88,484.82 626.74,484.82 627.60,484.82 628.47,484.82 629.33,484.82 630.19,484.82 631.06,484.82 631.92,484.82 632.78,484.82 633.64,484.82 634.51,484.82 635.37,484.82 636.23,484.82 637.10,484.82 637.96,484.82 638.82,484.82 639.68,484.82 640.55,484.82 641.41,484.82 642.27,484.82 643.14,484.82 644.00,484.82 644.86,484.82 645.72,484.82 646.59,484.82 647.45,484.82 648.31,484.82 649.18,484.82 650.04,484.82 650.90,484.82 651.76,484.82 652.63,484.82 653.49,484.82 654.35,484.82 655.22,484.82 656.08,484.82 656.94,484.82 657.80,484.82 658.67,484.82 659.53,484.82 660.39,484.82 661.26,484.82 662.12,484.82 662.98,484.82 663.84,484.82 664.71,484.82 665.57,484.82 666.43,484.82 667.30,484.82 668.16,484.82 669.02,484.82 669.88,484.82 670.75,484.82 671.61,484.82 672.47,484.82 673.34,484.82 674.20,484.82 675.06,484.82 675.92,484.82 676.79,484.82 677.65,484.82 678.51,484.82 679.38,484.82 680.24,484.82 681.10,484.82 681.96,484.82 682.83,484.82 683.69,484.82 684.55,484.82 685.42,484.82 686.28,484.82 687.14,484.82 688.00,484.82 688.87,484.82 689.73,484.82 690.59,484.82 691.46,484.82 692.32,484.82 693.18,484.82 694.04,484.82 694.91,484.82 695.77,484.82 696.63,484.82 697.50,484.82 698.36,484.82 699.22,484.82 700.08,484.82 700.95,484.82 701.81,484.82 702.67,484.82 703.54,484.82 704.40,484.82 705.26,484.82 706.12,484.82 706.99,484.82 707.85,484.82 708.71,484.82 709.58,484.82 710.44,484.82 711.30,484.82 712.16,484.82 713.03,484.82 713.89,484.82 714.75,484.82 715.62,484.82 716.48,484.82 717.34,484.82 718.20,484.82 719.07,484.82 719.93,484.82 720.79,484.82 721.66,484.82 722.52,484.82 723.38,484.82 724.24,484.82 725.11,484.82 725.97,484.82 726.83,484.82 727.70,484.82 728.56,484.82 729.42,484.82 730.28,484.82 731.15,484.82 732.01,484.82 732.87,484.82 733.74,484.82 734.60,484.82 735.46,484.82 736.32,484.82 737.19,484.82 738.05,484.82 738.91,484.82 739.78,484.82 740.64,484.82 741.50,484.82 742.36,484.82 743.23,484.82 744.09,484.82 744.95,484.82 745.82,484.82 746.68,484.82 747.54,484.82 748.40,484.82 749.27,484.82 750.13,484.82 750.99,484.82 751.86,484.82 752.72,484.82 753.58,484.82 754.44,484.82 755.31,484.82 756.17,484.82 757.03,484.82 757.90,484.82 758.76,484.82 759.62,484.82 760.48,484.82 761.35,484.82 762.21,484.82 763.07,484.82 763.94,484.82 764.80,484.82 765.66,484.82 766.52,484.82 767.39,484.82 768.25,484.82 769.11,484.82 769.98,484.82 770.84,484.82 771.70,484.82 772.56,484.82 773.43,484.82 774.29,484.82 775.15,484.82 776.02,484.82 776.88,484.82 777.74,484.82 778.60,484.82 779.47,484.82 780.33,484.82 781.19,484.82 782.06,484.82 782.92,484.82 783.78,484.82 784.64,484.82 785.51,484.82 786.37,484.82 787.23,484.82 788.10,484.82 788.96,484.82 789.82,484.82 790.68,484.82 791.55,484.82 792.41,484.82 793.27,484.82 794.14,484.82 795.00,484.82 795.86,484.82 796.72,484.82 797.59,484.82 798.45,484.82 799.31,484.82 800.18,484.82 801.04,484.82 801.90,484.82 802.76,484.82 803.63,484.82 804.49,484.82 805.35,484.82 806.22,484.82 807.08,484.82 807.94,484.82 808.80,484.82 809.67,484.82 810.53,484.82 811.39,484.82 812.26,484.82 813.12,484.82 813.98,484.82 814.84,484.82 815.71,484.82 816.57,484.82 817.43,484.82 818.30,484.82 819.16,484.82 820.02,484.82 820.88,484.83 821.75,484.83 822.61,484.83 823.47,484.83 824.34,484.83 825.20,484.83 826.06,484.83 826.92,484.83 827.79,484.83 828.65,484.83 829.51,484.83 830.38,484.83 831.24,484.83 832.10,484.83 832.96,484.83 833.83,484.83 834.69,484.83 835.55,484.83 836.42,484.83 837.28,484.83 838.14,484.83 839.01,484.83 839.87,484.83 840.73,484.83 841.59,484.83 842.46,484.83 843.32,484.83 844.18,484.83 845.05,484.83 845.91,484.83 846.77,484.83 847.63,484.83 848.50,484.83 849.36,484.83 850.22,484.83 851.09,484.83 851.95,484.83 852.81,484.83 853.67,484.83 854.54,484.83 855.40,484.83 856.26,484.83 857.13,484.83 857.99,484.83 858.85,484.83 859.71,484.83 860.58,484.83 861.44,484.83 862.30,484.83 863.17,484.83 864.03,484.83 864.89,484.83 865.75,484.83 866.62,484.83 867.48,484.83 868.34,484.83 869.21,484.83 870.07,484.83 870.93,484.83 871.79,484.83 872.66,484.83 873.52,484.83 874.38,484.83 875.25,484.83 876.11,484.83 876.97,484.83 877.83,484.83 878.70,484.83 879.56,484.83 880.42,484.83 881.29,484.83 882.15,484.83 883.01,484.83 883.87,484.83 884.74,484.83 885.60,484.83 886.46,484.83 887.33,484.83 888.19,484.83 889.05,484.83 889.91,484.83 890.78,484.83 891.64,484.83 892.50,484.83 893.37,484.83 894.23,484.83 895.09,484.83 895.95,484.83 896.82,484.83 897.68,484.83 898.54,484.83 899.41,484.83 900.27,484.83 901.13,484.83 901.99,484.82 902.86,484.82 903.72,484.82 904.58,484.82 905.45,484.82 906.31,484.82 907.17,484.82 908.03,484.82 908.90,484.82 909.76,484.82 910.62,484.82 911.49,484.82 912.35,484.82 913.21,484.82 914.07,484.82 914.94,484.82 915.80,484.82 916.66,484.82 917.53,484.82 918.39,484.82 919.25,484.82 920.11,484.82 920.98,484.82 921.84,484.82 922.70,484.82 923.57,484.82 924.43,484.82 925.29,484.82 926.15,484.82 927.02,484.82 927.88,484.82 928.74,484.82 929.61,484.82 930.47,484.82 931.33,484.82 932.19,484.82 933.06,484.82 933.92,484.82 934.78,484.82 935.65,484.82 936.51,484.82 937.37,484.82 938.23,484.82 939.10,484.82 939.96,484.82 940.82,484.82 941.69,484.82 942.55,484.82 943.41,484.82 944.27,484.82 945.14,484.82 946.00,484.82" />
  <circle cx="946.00" cy="484.82" r="4.5" fill="#9558B2" />
  <text x="938.00" y="472.82" text-anchor="end"
        font-family="Menlo, Monaco, monospace" font-size="12" fill="#9558B2">final 0.0208</text>

  <text x="84" y="30" font-family="Avenir Next, Helvetica, Arial, sans-serif" font-size="24" fill="#19202D">Julia Loss Convergence</text>
  <text x="84" y="48" font-family="Menlo, Monaco, monospace" font-size="13" fill="#4C5566">initial=7.2456  final=0.0208  reduction=99.71%  steps=1000</text>
  <text x="515.00" y="540" text-anchor="middle" font-family="Menlo, Monaco, monospace" font-size="12" fill="#6B7380">training step</text>
  <text x="20" y="270.00" transform="rotate(-90 20 270.00)" text-anchor="middle" font-family="Menlo, Monaco, monospace" font-size="12" fill="#6B7380">loss</text>
</svg>
