<svg xmlns="http://www.w3.org/2000/svg" width="980" height="560" viewBox="0 0 980 560" role="img" aria-label="python loss convergence">
  <rect width="100%" height="100%" fill="#FCFCFE" />
  <rect x="84" y="54" width="862" height="432" fill="#FFFFFF" stroke="#D7DCE5" stroke-width="1" rx="8" />
  <line x1="84" y1="486.00" x2="946" y2="486.00" stroke="#E7E9EF" stroke-width="1" /><text x="74" y="491.00" text-anchor="end" font-family="Menlo, Monaco, monospace" font-size="12" fill="#6B7380">0.00</text><line x1="84" y1="399.60" x2="946" y2="399.60" stroke="#E7E9EF" stroke-width="1" /><text x="74" y="404.60" text-anchor="end" font-family="Menlo, Monaco, monospace" font-size="12" fill="#6B7380">1.54</text><line x1="84" y1="313.20" x2="946" y2="313.20" stroke="#E7E9EF" stroke-width="1" /><text x="74" y="318.20" text-anchor="end" font-family="Menlo, Monaco, monospace" font-size="12" fill="#6B7380">3.08</text><line x1="84" y1="226.80" x2="946" y2="226.80" stroke="#E7E9EF" stroke-width="1" /><text x="74" y="231.80" text-anchor="end" font-family="Menlo, Monaco, monospace" font-size="12" fill="#6B7380">4.63</text><line x1="84" y1="140.40" x2="946" y2="140.40" stroke="#E7E9EF" stroke-width="1" /><text x="74" y="145.40" text-anchor="end" font-family="Menlo, Monaco, monospace" font-size="12" fill="#6B7380">6.17</text><line x1="84" y1="54.00" x2="946" y2="54.00" stroke="#E7E9EF" stroke-width="1" /><text x="74" y="59.00" text-anchor="end" font-family="Menlo, Monaco, monospace" font-size="12" fill="#6B7380">7.71</text>
  <line x1="84" y1="486" x2="946" y2="486" stroke="#9FA8B8" stroke-width="1.2" />
  <line x1="84.00" y1="486" x2="84.00" y2="492" stroke="#B8C0CC" stroke-width="1" /><text x="84.00" y="510" text-anchor="middle" font-family="Menlo, Monaco, monospace" font-size="12" fill="#6B7380">0</text><line x1="256.57" y1="486" x2="256.57" y2="492" stroke="#B8C0CC" stroke-width="1" /><text x="256.57" y="510" text-anchor="middle" font-family="Menlo, Monaco, monospace" font-size="12" fill="#6B7380">200</text><line x1="429.15" y1="486" x2="429.15" y2="492" stroke="#B8C0CC" stroke-width="1" /><text x="429.15" y="510" text-anchor="middle" font-family="Menlo, Monaco, monospace" font-size="12" fill="#6B7380">400</text><line x1="601.72" y1="486" x2="601.72" y2="492" stroke="#B8C0CC" stroke-width="1" /><text x="601.72" y="510" text-anchor="middle" font-family="Menlo, Monaco, monospace" font-size="12" fill="#6B7380">600</text><line x1="774.29" y1="486" x2="774.29" y2="492" stroke="#B8C0CC" stroke-width="1" /><text x="774.29" y="510" text-anchor="middle" font-family="Menlo, Monaco, monospace" font-size="12" fill="#6B7380">800</text><line x1="946.00" y1="486" x2="946.00" y2="492" stroke="#B8C0CC" stroke-width="1" /><text x="946.00" y="510" text-anchor="middle" font-family="Menlo, Monaco, monospace" font-size="12" fill="#6B7380">999</text>

  <polyline fill="none" stroke="#3776AB" stroke-opacity="0.28" stroke-width="1.4" points="84.00,74.57 84.86,86.03 85.73,108.18 86.59,138.51 87.45,171.29 88.31,206.05 89.18,240.86 90.04,272.55 90.90,302.92 91.77,322.59 92.63,342.15 93.49,362.75 94.35,382.37 95.22,399.29 96.08,414.60 96.94,425.79 97.81,436.08 98.67,444.44 99.53,443.20 100.39,456.13 101.26,460.31 102.12,462.93 102.98,466.30 103.85,469.42 104.71,471.96 105.57,474.16 106.43,476.00 107.30,477.51 108.16,477.83 109.02,478.79 109.89,479.74 110.75,479.79 111.61,471.55 112.47,481.75 113.34,482.18 114.20,482.50 115.06,482.34 115.93,482.73 116.79,483.03 117.65,483.23 118.51,483.38 119.38,483.49 120.24,483.60 121.10,483.69 121.97,483.78 122.83,483.85 123.69,483.91 124.55,483.97 125.42,484.02 126.28,484.07 127.14,484.11 128.01,484.08 128.87,484.12 129.73,484.16 130.59,484.19 131.46,484.22 132.32,484.25 133.18,484.27 134.05,484.29 134.91,484.32 135.77,484.33 136.63,484.35 137.50,484.37 138.36,484.38 139.22,484.39 140.09,484.41 140.95,484.42 141.81,484.43 142.67,484.43 143.54,484.44 144.40,484.45 145.26,484.46 146.13,484.47 146.99,484.47 147.85,484.48 148.71,484.49 149.58,484.49 150.44,478.30 151.30,484.50 152.17,484.51 153.03,484.51 153.89,484.52 154.75,484.52 155.62,484.52 156.48,484.53 157.34,484.53 158.21,484.53 159.07,484.54 159.93,484.54 160.79,484.54 161.66,484.54 162.52,484.55 163.38,484.55 164.25,484.55 165.11,484.56 165.97,484.56 166.83,484.56 167.70,484.56 168.56,484.57 169.42,484.57 170.29,484.58 171.15,484.58 172.01,484.58 172.87,484.58 173.74,484.58 174.60,484.59 175.46,484.59 176.33,484.59 177.19,484.59 178.05,484.59 178.91,484.60 179.78,484.60 180.64,484.60 181.50,484.60 182.37,484.60 183.23,484.60 184.09,484.61 184.95,484.61 185.82,484.61 186.68,484.61 187.54,484.61 188.41,484.61 189.27,484.61 190.13,484.61 190.99,484.62 191.86,484.62 192.72,484.49 193.58,484.62 194.45,484.62 195.31,484.62 196.17,484.62 197.04,484.62 197.90,484.62 198.76,484.63 199.62,484.63 200.49,484.63 201.35,484.63 202.21,484.63 203.08,484.63 203.94,484.63 204.80,484.63 205.66,484.63 206.53,484.63 207.39,484.64 208.25,484.64 209.12,484.63 209.98,484.63 210.84,484.63 211.70,484.62 212.57,484.63 213.43,484.63 214.29,484.63 215.16,484.63 216.02,484.64 216.88,484.64 217.74,484.64 218.61,484.64 219.47,484.65 220.33,484.64 221.20,484.64 222.06,484.64 222.92,484.64 223.78,484.64 224.65,484.64 225.51,484.64 226.37,484.64 227.24,484.65 228.10,484.65 228.96,484.65 229.82,484.65 230.69,484.65 231.55,484.65 232.41,484.65 233.28,484.65 234.14,484.65 235.00,484.65 235.86,484.65 236.73,484.65 237.59,484.65 238.45,484.65 239.32,484.65 240.18,484.65 241.04,484.64 241.90,484.64 242.77,484.64 243.63,484.64 244.49,484.64 245.36,484.64 246.22,484.64 247.08,484.65 247.94,484.65 248.81,484.65 249.67,484.65 250.53,484.65 251.40,484.65 252.26,484.65 253.12,484.65 253.98,484.65 254.85,484.65 255.71,484.65 256.57,484.65 257.44,484.65 258.30,484.65 259.16,484.65 260.02,484.65 260.89,484.65 261.75,484.65 262.61,484.65 263.48,484.63 264.34,484.65 265.20,484.65 266.06,484.65 266.93,484.65 267.79,484.65 268.65,484.65 269.52,484.65 270.38,484.65 271.24,484.65 272.10,484.65 272.97,484.65 273.83,484.65 274.69,484.65 275.56,484.65 276.42,484.65 277.28,484.65 278.14,484.65 279.01,484.65 279.87,484.65 280.73,484.65 281.60,484.65 282.46,484.65 283.32,484.65 284.18,484.65 285.05,484.65 285.91,484.65 286.77,484.65 287.64,484.65 288.50,484.65 289.36,484.65 290.22,484.65 291.09,484.65 291.95,484.65 292.81,484.65 293.68,484.65 294.54,484.65 295.40,484.65 296.26,484.65 297.13,484.65 297.99,484.65 298.85,484.65 299.72,484.65 300.58,484.65 301.44,484.65 302.30,484.65 303.17,484.65 304.03,484.65 304.89,484.65 305.76,484.65 306.62,484.65 307.48,484.65 308.34,484.65 309.21,484.65 310.07,484.65 310.93,484.65 311.80,484.65 312.66,484.65 313.52,484.65 314.38,484.65 315.25,484.65 316.11,484.65 316.97,484.65 317.84,484.65 318.70,484.65 319.56,484.65 320.42,484.65 321.29,484.65 322.15,484.65 323.01,484.65 323.88,484.65 324.74,484.64 325.60,484.65 326.46,484.65 327.33,484.65 328.19,484.65 329.05,484.65 329.92,484.65 330.78,484.65 331.64,484.65 332.50,484.65 333.37,484.65 334.23,484.65 335.09,484.65 335.96,484.65 336.82,484.65 337.68,484.65 338.54,484.65 339.41,484.65 340.27,484.65 341.13,484.65 342.00,484.65 342.86,484.65 343.72,484.65 344.58,484.65 345.45,484.65 346.31,484.65 347.17,484.65 348.04,484.65 348.90,484.65 349.76,484.65 350.62,484.65 351.49,484.65 352.35,484.65 353.21,484.65 354.08,484.65 354.94,484.65 355.80,484.65 356.66,484.65 357.53,484.65 358.39,484.65 359.25,484.65 360.12,484.65 360.98,484.65 361.84,484.65 362.70,484.65 363.57,484.65 364.43,484.65 365.29,484.65 366.16,484.65 367.02,484.65 367.88,484.65 368.74,484.65 369.61,484.63 370.47,484.63 371.33,484.65 372.20,484.65 373.06,484.65 373.92,484.65 374.78,484.65 375.65,484.65 376.51,484.65 377.37,484.65 378.24,484.65 379.10,484.65 379.96,484.65 380.82,484.65 381.69,484.65 382.55,484.65 383.41,484.65 384.28,484.65 385.14,484.65 386.00,484.65 386.86,484.65 387.73,484.65 388.59,484.65 389.45,484.65 390.32,484.65 391.18,484.65 392.04,484.65 392.90,484.65 393.77,484.65 394.63,484.65 395.49,484.65 396.36,484.65 397.22,484.65 398.08,484.65 398.94,484.65 399.81,484.65 400.67,484.65 401.53,484.63 402.40,484.65 403.26,484.65 404.12,484.65 404.98,484.65 405.85,484.65 406.71,484.65 407.57,484.65 408.44,484.65 409.30,484.65 410.16,484.65 411.03,484.65 411.89,484.64 412.75,484.64 413.61,484.64 414.48,484.64 415.34,484.64 416.20,484.64 417.07,484.63 417.93,484.63 418.79,484.64 419.65,484.64 420.52,484.64 421.38,484.64 422.24,484.64 423.11,484.64 423.97,484.64 424.83,484.64 425.69,484.64 426.56,484.63 427.42,484.63 428.28,484.64 429.15,484.64 430.01,484.64 430.87,484.64 431.73,484.64 432.60,484.64 433.46,484.64 434.32,484.64 435.19,484.64 436.05,484.64 436.91,484.64 437.77,484.64 438.64,484.64 439.50,484.64 440.36,484.64 441.23,484.63 442.09,484.63 442.95,484.64 443.81,484.64 444.68,484.64 445.54,484.64 446.40,484.64 447.27,484.64 448.13,484.64 448.99,484.64 449.85,484.64 450.72,484.63 451.58,484.63 452.44,484.63 453.31,484.64 454.17,484.64 455.03,484.64 455.89,484.64 456.76,484.64 457.62,484.63 458.48,484.63 459.35,484.63 460.21,484.63 461.07,484.63 461.93,484.64 462.80,484.64 463.66,484.64 464.52,484.63 465.39,484.63 466.25,484.63 467.11,484.63 467.97,484.63 468.84,484.63 469.70,484.63 470.56,484.63 471.43,484.63 472.29,484.63 473.15,484.63 474.01,484.63 474.88,484.63 475.74,484.62 476.60,484.62 477.47,484.62 478.33,484.62 479.19,484.62 480.05,484.62 480.92,484.62 481.78,484.62 482.64,484.62 483.51,484.62 484.37,484.62 485.23,484.62 486.09,484.62 486.96,484.62 487.82,484.62 488.68,484.62 489.55,484.62 490.41,484.62 491.27,484.62 492.13,484.62 493.00,484.62 493.86,484.62 494.72,484.62 495.59,484.62 496.45,484.62 497.31,484.62 498.17,484.62 499.04,484.62 499.90,484.62 500.76,484.62 501.63,484.62 502.49,484.62 503.35,484.62 504.21,484.62 505.08,484.62 505.94,484.61 506.80,484.61 507.67,484.61 508.53,484.61 509.39,484.61 510.25,484.61 511.12,484.61 511.98,484.61 512.84,484.61 513.71,484.61 514.57,484.61 515.43,484.61 516.29,484.61 517.16,484.61 518.02,484.61 518.88,484.61 519.75,484.61 520.61,484.61 521.47,484.61 522.33,484.60 523.20,484.61 524.06,484.61 524.92,484.61 525.79,484.61 526.65,484.61 527.51,484.62 528.37,484.62 529.24,484.62 530.10,484.62 530.96,484.61 531.83,484.61 532.69,484.61 533.55,484.61 534.41,484.61 535.28,484.61 536.14,484.62 537.00,484.62 537.87,484.62 538.73,484.62 539.59,484.62 540.45,484.62 541.32,484.62 542.18,484.62 543.04,484.62 543.91,484.64 544.77,484.64 545.63,484.64 546.49,484.64 547.36,484.64 548.22,484.64 549.08,484.64 549.95,484.64 550.81,484.64 551.67,484.64 552.53,484.64 553.40,484.64 554.26,484.64 555.12,484.64 555.99,484.64 556.85,484.65 557.71,484.65 558.57,484.65 559.44,484.65 560.30,484.64 561.16,484.64 562.03,484.64 562.89,484.64 563.75,484.62 564.61,484.62 565.48,484.62 566.34,484.62 567.20,484.62 568.07,484.62 568.93,484.62 569.79,484.62 570.65,484.62 571.52,484.62 572.38,484.62 573.24,484.62 574.11,484.65 574.97,484.65 575.83,484.65 576.69,484.65 577.56,484.62 578.42,484.62 579.28,484.62 580.15,484.62 581.01,484.62 581.87,484.62 582.73,484.62 583.60,484.62 584.46,484.62 585.32,484.65 586.19,484.65 587.05,484.65 587.91,484.65 588.77,484.62 589.64,484.62 590.50,484.62 591.36,484.62 592.23,484.62 593.09,484.62 593.95,484.65 594.81,484.65 595.68,484.65 596.54,484.62 597.40,484.62 598.27,484.62 599.13,484.64 599.99,484.64 600.85,484.64 601.72,484.64 602.58,484.62 603.44,484.62 604.31,484.62 605.17,484.62 606.03,484.64 606.89,484.64 607.76,484.64 608.62,484.64 609.48,484.64 610.35,484.62 611.21,484.62 612.07,484.64 612.93,484.64 613.80,484.62 614.66,484.65 615.52,484.65 616.39,484.62 617.25,484.65 618.11,484.65 618.97,484.65 619.84,484.62 620.70,484.62 621.56,484.65 622.43,484.65 623.29,484.65 624.15,484.65 625.02,484.65 625.88,484.65 626.74,484.62 627.60,484.63 628.47,484.65 629.33,484.65 630.19,484.65 631.06,484.65 631.92,484.65 632.78,484.65 633.64,484.65 634.51,484.63 635.37,484.63 636.23,484.65 637.10,484.65 637.96,484.65 638.82,484.65 639.68,484.65 640.55,484.65 641.41,484.65 642.27,484.65 643.14,484.64 644.00,484.63 644.86,484.63 645.72,484.65 646.59,484.65 647.45,484.65 648.31,484.65 649.18,484.65 650.04,484.65 650.90,484.65 651.76,484.65 652.63,484.65 653.49,484.65 654.35,484.65 655.22,484.65 656.08,484.62 656.94,484.65 657.80,484.68 658.67,484.68 659.53,484.68 660.39,484.68 661.26,484.68 662.12,484.68 662.98,484.68 663.84,484.68 664.71,484.68 665.57,484.68 666.43,484.68 667.30,484.68 668.16,484.68 669.02,484.68 669.88,484.68 670.75,484.68 671.61,484.68 672.47,484.68 673.34,484.68 674.20,484.68 675.06,484.68 675.92,484.68 676.79,484.68 677.65,484.68 678.51,484.68 679.38,484.68 680.24,484.68 681.10,484.68 681.96,484.68 682.83,484.68 683.69,484.68 684.55,484.68 685.42,484.68 686.28,484.68 687.14,484.68 688.00,484.68 688.87,484.68 689.73,484.68 690.59,484.68 691.46,484.68 692.32,484.68 693.18,484.68 694.04,484.68 694.91,484.68 695.77,484.68 696.63,484.68 697.50,484.68 698.36,484.68 699.22,484.68 700.08,484.68 700.95,484.68 701.81,484.68 702.67,484.68 703.54,484.68 704.40,484.68 705.26,484.68 706.12,484.68 706.99,484.68 707.85,484.68 708.71,484.68 709.58,484.68 710.44,484.68 711.30,484.68 712.16,484.68 713.03,484.68 713.89,484.68 714.75,484.68 715.62,484.68 716.48,484.68 717.34,484.68 718.20,484.68 719.07,484.68 719.93,484.68 720.79,484.68 721.66,484.68 722.52,484.68 723.38,484.68 724.24,484.68 725.11,484.68 725.97,484.68 726.83,484.68 727.70,484.68 728.56,484.68 729.42,484.68 730.28,484.68 731.15,484.68 732.01,484.68 732.87,484.68 733.74,484.68 734.60,484.68 735.46,484.68 736.32,484.70 737.19,484.68 738.05,484.68 738.91,484.68 739.78,484.68 740.64,484.68 741.50,484.70 742.36,484.70 743.23,484.68 744.09,484.68 744.95,484.68 745.82,484.68 746.68,484.70 747.54,484.70 748.40,484.68 749.27,484.68 750.13,484.68 750.99,484.70 751.86,484.70 752.72,484.69 753.58,484.69 754.44,484.69 755.31,484.70 756.17,484.70 757.03,484.70 757.90,484.69 758.76,484.69 759.62,484.69 760.48,484.70 761.35,484.70 762.21,484.70 763.07,484.70 763.94,484.69 764.80,484.69 765.66,484.70 766.52,484.70 767.39,484.70 768.25,484.70 769.11,484.69 769.98,484.69 770.84,484.70 771.70,484.70 772.56,484.69 773.43,484.70 774.29,484.70 775.15,484.69 776.02,484.69 776.88,484.70 777.74,484.70 778.60,484.70 779.47,484.70 780.33,484.70 781.19,484.69 782.06,484.69 782.92,484.70 783.78,484.70 784.64,484.70 785.51,484.70 786.37,484.69 787.23,484.70 788.10,484.69 788.96,484.70 789.82,484.70 790.68,484.70 791.55,484.69 792.41,484.70 793.27,484.70 794.14,484.69 795.00,484.70 795.86,484.70 796.72,484.69 797.59,484.70 798.45,484.68 799.31,484.70 800.18,484.69 801.04,484.69 801.90,484.70 802.76,484.70 803.63,484.70 804.49,484.70 805.35,484.70 806.22,484.70 807.08,484.69 807.94,484.70 808.80,484.70 809.67,484.70 810.53,484.68 811.39,484.68 812.26,484.67 813.12,484.68 813.98,484.68 814.84,484.68 815.71,484.70 816.57,484.70 817.43,484.70 818.30,484.70 819.16,484.69 820.02,484.70 820.88,484.70 821.75,484.70 822.61,484.70 823.47,484.70 824.34,484.70 825.20,484.70 826.06,484.70 826.92,484.69 827.79,484.70 828.65,484.70 829.51,484.70 830.38,484.70 831.24,484.70 832.10,484.70 832.96,484.70 833.83,484.70 834.69,484.70 835.55,484.69 836.42,484.70 837.28,484.70 838.14,484.70 839.01,484.70 839.87,484.70 840.73,484.70 841.59,484.70 842.46,484.70 843.32,484.70 844.18,484.69 845.05,484.70 845.91,484.70 846.77,484.70 847.63,484.70 848.50,484.70 849.36,484.70 850.22,484.70 851.09,484.70 851.95,484.70 852.81,484.69 853.67,484.70 854.54,484.70 855.40,484.70 856.26,484.70 857.13,484.70 857.99,484.70 858.85,484.70 859.71,484.70 860.58,484.70 861.44,484.69 862.30,484.70 863.17,484.70 864.03,484.70 864.89,484.70 865.75,484.70 866.62,484.70 867.48,484.70 868.34,484.70 869.21,484.68 870.07,484.67 870.93,484.68 871.79,484.68 872.66,484.70 873.52,484.70 874.38,484.70 875.25,484.70 876.11,484.70 876.97,484.70 877.83,484.70 878.70,484.70 879.56,484.69 880.42,484.70 881.29,484.70 882.15,484.70 883.01,484.70 883.87,484.70 884.74,484.70 885.60,484.70 886.46,484.70 887.33,484.70 888.19,484.70 889.05,484.70 889.91,484.70 890.78,484.69 891.64,484.70 892.50,484.70 893.37,484.70 894.23,484.70 895.09,484.70 895.95,484.70 896.82,484.70 897.68,484.70 898.54,484.70 899.41,484.70 900.27,484.70 901.13,484.68 901.99,484.66 902.86,484.68 903.72,484.68 904.58,484.68 905.45,484.68 906.31,484.68 907.17,484.68 908.03,484.68 908.90,484.68 909.76,484.70 910.62,484.70 911.49,484.70 912.35,484.70 913.21,484.70 914.07,484.69 914.94,484.70 915.80,484.70 916.66,484.70 917.53,484.70 918.39,484.70 919.25,484.70 920.11,484.70 920.98,484.70 921.84,484.70 922.70,484.70 923.57,484.70 924.43,484.70 925.29,484.70 926.15,484.70 927.02,484.70 927.88,484.70 928.74,484.70 929.61,484.70 930.47,484.70 931.33,484.70 932.19,484.70 933.06,484.70 933.92,484.70 934.78,484.69 935.65,484.70 936.51,484.70 937.37,484.70 938.23,484.70 939.10,484.70 939.96,484.70 940.82,484.70 941.69,484.70 942.55,484.70 943.41,484.70 944.27,484.70 945.14,484.70 946.00,484.70" />
  <polyline fill="none" stroke="#3776AB" stroke-width="3" points="84.00,74.57 84.86,80.30 85.73,89.59 86.59,101.82 87.45,115.72 88.31,130.77 89.18,146.50 90.04,162.25 90.90,177.88 91.77,192.35 92.63,205.97 93.49,219.04 94.35,231.60 95.22,243.58 96.08,254.98 96.94,265.66 97.81,275.68 98.67,285.06 99.53,293.38 100.39,301.52 101.26,309.08 102.12,316.07 102.98,322.60 103.85,328.72 104.71,334.45 105.57,350.43 106.43,366.03 107.30,380.81 108.16,394.38 109.02,406.68 109.89,417.63 110.75,427.18 111.61,435.14 112.47,442.30 113.34,448.68 114.20,454.30 115.06,459.08 115.93,463.09 116.79,466.44 117.65,469.19 118.51,471.49 119.38,473.39 120.24,474.95 121.10,476.57 121.97,477.68 122.83,478.62 123.69,479.46 124.55,480.17 125.42,480.75 126.28,481.24 127.14,481.63 128.01,481.96 128.87,482.22 129.73,482.47 130.59,482.69 131.46,482.87 132.32,483.05 133.18,483.56 134.05,483.66 134.91,483.74 135.77,483.82 136.63,483.90 137.50,483.96 138.36,484.02 139.22,484.06 140.09,484.10 140.95,484.14 141.81,484.18 142.67,484.20 143.54,484.23 144.40,484.26 145.26,484.28 146.13,484.30 146.99,484.32 147.85,484.33 148.71,484.35 149.58,484.36 150.44,484.13 151.30,484.14 152.17,484.16 153.03,484.17 153.89,484.18 154.75,484.19 155.62,484.20 156.48,484.21 157.34,484.21 158.21,484.22 159.07,484.23 159.93,484.24 160.79,484.24 161.66,484.25 162.52,484.25 163.38,484.26 164.25,484.26 165.11,484.27 165.97,484.27 166.83,484.27 167.70,484.28 168.56,484.28 169.42,484.29 170.29,484.29 171.15,484.29 172.01,484.54 172.87,484.55 173.74,484.55 174.60,484.55 175.46,484.56 176.33,484.56 177.19,484.56 178.05,484.56 178.91,484.57 179.78,484.57 180.64,484.57 181.50,484.57 182.37,484.58 183.23,484.58 184.09,484.58 184.95,484.58 185.82,484.59 186.68,484.59 187.54,484.59 188.41,484.59 189.27,484.59 190.13,484.60 190.99,484.60 191.86,484.60 192.72,484.60 193.58,484.60 194.45,484.60 195.31,484.60 196.17,484.60 197.04,484.60 197.90,484.60 198.76,484.61 199.62,484.61 200.49,484.61 201.35,484.61 202.21,484.61 203.08,484.61 203.94,484.61 204.80,484.61 205.66,484.62 206.53,484.62 207.39,484.62 208.25,484.62 209.12,484.62 209.98,484.62 210.84,484.62 211.70,484.62 212.57,484.62 213.43,484.62 214.29,484.63 215.16,484.63 216.02,484.63 216.88,484.63 217.74,484.63 218.61,484.63 219.47,484.63 220.33,484.63 221.20,484.63 222.06,484.64 222.92,484.64 223.78,484.64 224.65,484.64 225.51,484.64 226.37,484.64 227.24,484.64 228.10,484.64 228.96,484.64 229.82,484.64 230.69,484.64 231.55,484.64 232.41,484.64 233.28,484.64 234.14,484.64 235.00,484.64 235.86,484.64 236.73,484.65 237.59,484.65 238.45,484.65 239.32,484.65 240.18,484.65 241.04,484.65 241.90,484.65 242.77,484.65 243.63,484.65 244.49,484.65 245.36,484.65 246.22,484.65 247.08,484.65 247.94,484.65 248.81,484.65 249.67,484.65 250.53,484.65 251.40,484.65 252.26,484.65 253.12,484.65 253.98,484.65 254.85,484.65 255.71,484.65 256.57,484.65 257.44,484.65 258.30,484.65 259.16,484.65 260.02,484.65 260.89,484.65 261.75,484.65 262.61,484.65 263.48,484.65 264.34,484.65 265.20,484.65 266.06,484.65 266.93,484.65 267.79,484.65 268.65,484.65 269.52,484.65 270.38,484.65 271.24,484.65 272.10,484.65 272.97,484.65 273.83,484.65 274.69,484.65 275.56,484.65 276.42,484.65 277.28,484.65 278.14,484.65 279.01,484.65 279.87,484.65 280.73,484.65 281.60,484.65 282.46,484.65 283.32,484.65 284.18,484.65 285.05,484.65 285.91,484.65 286.77,484.65 287.64,484.65 288.50,484.65 289.36,484.65 290.22,484.65 291.09,484.65 291.95,484.65 292.81,484.65 293.68,484.65 294.54,484.65 295.40,484.65 296.26,484.65 297.13,484.65 297.99,484.65 298.85,484.65 299.72,484.65 300.58,484.65 301.44,484.65 302.30,484.65 303.17,484.65 304.03,484.65 304.89,484.65 305.76,484.65 306.62,484.65 307.48,484.65 308.34,484.65 309.21,484.65 310.07,484.65 310.93,484.65 311.80,484.65 312.66,484.65 313.52,484.65 314.38,484.65 315.25,484.65 316.11,484.65 316.97,484.65 317.84,484.65 318.70,484.65 319.56,484.65 320.42,484.65 321.29,484.65 322.15,484.65 323.01,484.65 323.88,484.65 324.74,484.65 325.60,484.65 326.46,484.65 327.33,484.65 328.19,484.65 329.05,484.65 329.92,484.65 330.78,484.65 331.64,484.65 332.50,484.65 333.37,484.65 334.23,484.65 335.09,484.65 335.96,484.65 336.82,484.65 337.68,484.65 338.54,484.65 339.41,484.65 340.27,484.65 341.13,484.65 342.00,484.65 342.86,484.65 343.72,484.65 344.58,484.65 345.45,484.65 346.31,484.65 347.17,484.65 348.04,484.65 348.90,484.65 349.76,484.65 350.62,484.65 351.49,484.65 352.35,484.65 353.21,484.65 354.08,484.65 354.94,484.65 355.80,484.65 356.66,484.65 357.53,484.65 358.39,484.65 359.25,484.65 360.12,484.65 360.98,484.65 361.84,484.65 362.70,484.65 363.57,484.65 364.43,484.65 365.29,484.65 366.16,484.65 367.02,484.65 367.88,484.65 368.74,484.65 369.61,484.65 370.47,484.65 371.33,484.65 372.20,484.65 373.06,484.65 373.92,484.65 374.78,484.65 375.65,484.65 376.51,484.65 377.37,484.65 378.24,484.65 379.10,484.65 379.96,484.65 380.82,484.65 381.69,484.65 382.55,484.65 383.41,484.65 384.28,484.65 385.14,484.65 386.00,484.65 386.86,484.65 387.73,484.65 388.59,484.65 389.45,484.65 390.32,484.65 391.18,484.65 392.04,484.65 392.90,484.65 393.77,484.65 394.63,484.65 395.49,484.65 396.36,484.65 397.22,484.65 398.08,484.65 398.94,484.65 399.81,484.65 400.67,484.65 401.53,484.65 402.40,484.65 403.26,484.65 404.12,484.65 404.98,484.65 405.85,484.65 406.71,484.65 407.57,484.65 408.44,484.65 409.30,484.65 410.16,484.65 411.03,484.65 411.89,484.65 412.75,484.65 413.61,484.65 414.48,484.65 415.34,484.65 416.20,484.65 417.07,484.65 417.93,484.64 418.79,484.64 419.65,484.64 420.52,484.64 421.38,484.64 422.24,484.64 423.11,484.64 423.97,484.64 424.83,484.64 425.69,484.64 426.56,484.64 427.42,484.64 428.28,484.64 429.15,484.64 430.01,484.64 430.87,484.64 431.73,484.64 432.60,484.64 433.46,484.64 434.32,484.64 435.19,484.64 436.05,484.64 436.91,484.64 437.77,484.64 438.64,484.64 439.50,484.64 440.36,484.64 441.23,484.64 442.09,484.64 442.95,484.64 443.81,484.64 444.68,484.64 445.54,484.64 446.40,484.64 447.27,484.64 448.13,484.64 448.99,484.64 449.85,484.64 450.72,484.64 451.58,484.64 452.44,484.64 453.31,484.64 454.17,484.64 455.03,484.64 455.89,484.64 456.76,484.64 457.62,484.64 458.48,484.64 459.35,484.64 460.21,484.64 461.07,484.63 461.93,484.63 462.80,484.64 463.66,484.64 464.52,484.63 465.39,484.63 466.25,484.63 467.11,484.63 467.97,484.63 468.84,484.63 469.70,484.63 470.56,484.63 471.43,484.63 472.29,484.63 473.15,484.63 474.01,484.63 474.88,484.63 475.74,484.63 476.60,484.63 477.47,484.63 478.33,484.63 479.19,484.63 480.05,484.63 480.92,484.63 481.78,484.63 482.64,484.63 483.51,484.63 484.37,484.63 485.23,484.63 486.09,484.62 486.96,484.62 487.82,484.62 488.68,484.62 489.55,484.62 490.41,484.62 491.27,484.62 492.13,484.62 493.00,484.62 493.86,484.62 494.72,484.62 495.59,484.62 496.45,484.62 497.31,484.62 498.17,484.62 499.04,484.62 499.90,484.62 500.76,484.62 501.63,484.62 502.49,484.62 503.35,484.62 504.21,484.62 505.08,484.62 505.94,484.62 506.80,484.62 507.67,484.62 508.53,484.62 509.39,484.62 510.25,484.62 511.12,484.62 511.98,484.62 512.84,484.62 513.71,484.62 514.57,484.62 515.43,484.62 516.29,484.61 517.16,484.61 518.02,484.61 518.88,484.61 519.75,484.61 520.61,484.61 521.47,484.61 522.33,484.61 523.20,484.61 524.06,484.61 524.92,484.61 525.79,484.61 526.65,484.61 527.51,484.61 528.37,484.61 529.24,484.61 530.10,484.61 530.96,484.61 531.83,484.61 532.69,484.61 533.55,484.61 534.41,484.61 535.28,484.61 536.14,484.61 537.00,484.61 537.87,484.61 538.73,484.61 539.59,484.61 540.45,484.61 541.32,484.61 542.18,484.62 543.04,484.62 543.91,484.62 544.77,484.62 545.63,484.62 546.49,484.62 547.36,484.62 548.22,484.62 549.08,484.62 549.95,484.63 550.81,484.63 551.67,484.63 552.53,484.63 553.40,484.63 554.26,484.63 555.12,484.63 555.99,484.63 556.85,484.64 557.71,484.64 558.57,484.64 559.44,484.64 560.30,484.64 561.16,484.64 562.03,484.64 562.89,484.64 563.75,484.64 564.61,484.64 565.48,484.64 566.34,484.64 567.20,484.64 568.07,484.64 568.93,484.64 569.79,484.64 570.65,484.64 571.52,484.63 572.38,484.63 573.24,484.63 574.11,484.63 574.97,484.63 575.83,484.63 576.69,484.63 577.56,484.63 578.42,484.63 579.28,484.63 580.15,484.63 581.01,484.63 581.87,484.63 582.73,484.63 583.60,484.63 584.46,484.63 585.32,484.63 586.19,484.63 587.05,484.63 587.91,484.63 588.77,484.63 589.64,484.63 590.50,484.63 591.36,484.63 592.23,484.63 593.09,484.63 593.95,484.63 594.81,484.63 595.68,484.63 596.54,484.63 597.40,484.63 598.27,484.63 599.13,484.63 599.99,484.63 600.85,484.63 601.72,484.63 602.58,484.63 603.44,484.63 604.31,484.63 605.17,484.63 606.03,484.63 606.89,484.63 607.76,484.63 608.62,484.63 609.48,484.63 610.35,484.63 611.21,484.63 612.07,484.63 612.93,484.63 613.80,484.63 614.66,484.64 615.52,484.64 616.39,484.63 617.25,484.63 618.11,484.63 618.97,484.64 619.84,484.64 620.70,484.64 621.56,484.64 622.43,484.64 623.29,484.64 624.15,484.64 625.02,484.64 625.88,484.64 626.74,484.64 627.60,484.64 628.47,484.64 629.33,484.64 630.19,484.64 631.06,484.64 631.92,484.64 632.78,484.64 633.64,484.64 634.51,484.64 635.37,484.64 636.23,484.64 637.10,484.64 637.96,484.64 638.82,484.64 639.68,484.64 640.55,484.64 641.41,484.64 642.27,484.65 643.14,484.65 644.00,484.64 644.86,484.64 645.72,484.64 646.59,484.64 647.45,484.64 648.31,484.65 649.18,484.65 650.04,484.65 650.90,484.65 651.76,484.65 652.63,484.65 653.49,484.65 654.35,484.65 655.22,484.65 656.08,484.65 656.94,484.65 657.80,484.65 658.67,484.65 659.53,484.65 660.39,484.65 661.26,484.65 662.12,484.65 662.98,484.65 663.84,484.66 664.71,484.66 665.57,484.66 666.43,484.66 667.30,484.66 668.16,484.66 669.02,484.66 669.88,484.67 670.75,484.67 671.61,484.67 672.47,484.67 673.34,484.67 674.20,484.67 675.06,484.67 675.92,484.67 676.79,484.67 677.65,484.68 678.51,484.68 679.38,484.68 680.24,484.68 681.10,484.68 681.96,484.68 682.83,484.68 683.69,484.68 684.55,484.68 685.42,484.68 686.28,484.68 687.14,484.68 688.00,484.68 688.87,484.68 689.73,484.68 690.59,484.68 691.46,484.68 692.32,484.68 693.18,484.68 694.04,484.68 694.91,484.68 695.77,484.68 696.63,484.68 697.50,484.68 698.36,484.68 699.22,484.68 700.08,484.68 700.95,484.68 701.81,484.68 702.67,484.68 703.54,484.68 704.40,484.68 705.26,484.68 706.12,484.68 706.99,484.68 707.85,484.68 708.71,484.68 709.58,484.68 710.44,484.68 711.30,484.68 712.16,484.68 713.03,484.68 713.89,484.68 714.75,484.68 715.62,484.68 716.48,484.68 717.34,484.68 718.20,484.68 719.07,484.68 719.93,484.68 720.79,484.68 721.66,484.68 722.52,484.68 723.38,484.68 724.24,484.68 725.11,484.68 725.97,484.68 726.83,484.68 727.70,484.68 728.56,484.68 729.42,484.68 730.28,484.68 731.15,484.68 732.01,484.68 732.87,484.68 733.74,484.68 734.60,484.68 735.46,484.68 736.32,484.68 737.19,484.68 738.05,484.68 738.91,484.68 739.78,484.68 740.64,484.68 741.50,484.68 742.36,484.69 743.23,484.69 744.09,484.69 744.95,484.69 745.82,484.69 746.68,484.69 747.54,484.69 748.40,484.69 749.27,484.69 750.13,484.69 750.99,484.69 751.86,484.69 752.72,484.69 753.58,484.69 754.44,484.69 755.31,484.69 756.17,484.69 757.03,484.69 757.90,484.69 758.76,484.69 759.62,484.69 760.48,484.69 761.35,484.69 762.21,484.69 763.07,484.69 763.94,484.69 764.80,484.69 765.66,484.69 766.52,484.69 767.39,484.69 768.25,484.69 769.11,484.69 769.98,484.69 770.84,484.69 771.70,484.69 772.56,484.69 773.43,484.69 774.29,484.69 775.15,484.69 776.02,484.69 776.88,484.69 777.74,484.69 778.60,484.69 779.47,484.69 780.33,484.69 781.19,484.69 782.06,484.69 782.92,484.69 783.78,484.69 784.64,484.69 785.51,484.69 786.37,484.69 787.23,484.69 788.10,484.69 788.96,484.69 789.82,484.69 790.68,484.69 791.55,484.69 792.41,484.69 793.27,484.69 794.14,484.69 795.00,484.69 795.86,484.69 796.72,484.69 797.59,484.69 798.45,484.69 799.31,484.69 800.18,484.69 801.04,484.69 801.90,484.69 802.76,484.69 803.63,484.69 804.49,484.69 805.35,484.69 806.22,484.69 807.08,484.69 807.94,484.69 808.80,484.69 809.67,484.69 810.53,484.69 811.39,484.69 812.26,484.69 813.12,484.69 813.98,484.69 814.84,484.69 815.71,484.69 816.57,484.69 817.43,484.69 818.30,484.69 819.16,484.69 820.02,484.69 820.88,484.69 821.75,484.69 822.61,484.69 823.47,484.69 824.34,484.69 825.20,484.69 826.06,484.69 826.92,484.69 827.79,484.69 828.65,484.69 829.51,484.69 830.38,484.69 831.24,484.69 832.10,484.70 832.96,484.70 833.83,484.70 834.69,484.70 835.55,484.70 836.42,484.70 837.28,484.70 838.14,484.70 839.01,484.70 839.87,484.70 840.73,484.70 841.59,484.70 842.46,484.70 843.32,484.70 844.18,484.70 845.05,484.70 845.91,484.70 846.77,484.70 847.63,484.70 848.50,484.70 849.36,484.70 850.22,484.70 851.09,484.70 851.95,484.70 852.81,484.70 853.67,484.70 854.54,484.70 855.40,484.70 856.26,484.70 857.13,484.70 857.99,484.70 858.85,484.70 859.71,484.70 860.58,484.70 861.44,484.70 862.30,484.70 863.17,484.70 864.03,484.70 864.89,484.70 865.75,484.70 866.62,484.70 867.48,484.70 868.34,484.70 869.21,484.70 870.07,484.70 870.93,484.70 871.79,484.70 872.66,484.70 873.52,484.70 874.38,484.70 875.25,484.70 876.11,484.70 876.97,484.70 877.83,484.70 878.70,484.70 879.56,484.70 880.42,484.70 881.29,484.70 882.15,484.70 883.01,484.70 883.87,484.70 884.74,484.70 885.60,484.70 886.46,484.70 887.33,484.70 888.19,484.70 889.05,484.70 889.91,484.70 890.78,484.70 891.64,484.70 892.50,484.70 893.37,484.70 894.23,484.70 895.09,484.70 895.95,484.70 896.82,484.70 897.68,484.70 898.54,484.70 899.41,484.70 900.27,484.70 901.13,484.70 901.99,484.70 902.86,484.70 903.72,484.70 904.58,484.70 905.45,484.70 906.31,484.70 907.17,484.69 908.03,484.69 908.90,484.69 909.76,484.69 910.62,484.69 911.49,484.69 912.35,484.69 913.21,484.69 914.07,484.69 914.94,484.69 915.80,484.69 916.66,484.69 917.53,484.69 918.39,484.69 919.25,484.69 920.11,484.69 920.98,484.69 921.84,484.69 922.70,484.69 923.57,484.69 924.43,484.70 925.29,484.70 926.15,484.70 927.02,484.70 927.88,484.70 928.74,484.70 929.61,484.70 930.47,484.70 931.33,484.70 932.19,484.70 933.06,484.70 933.92,484.70 934.78,484.70 935.65,484.70 936.51,484.70 937.37,484.70 938.23,484.70 939.10,484.70 939.96,484.70 940.82,484.70 941.69,484.70 942.55,484.70 943.41,484.70 944.27,484.70 945.14,484.70 946.00,484.70" />
  <circle cx="946.00" cy="484.70" r="4.5" fill="#3776AB" />
  <text x="938.00" y="472.70" text-anchor="end"
        font-family="Menlo, Monaco, monospace" font-size="12" fill="#3776AB">final 0.0233</text>

  <text x="84" y="30" font-family="Avenir Next, Helvetica, Arial, sans-serif" font-size="24" fill="#19202D">Python Loss Convergence</text>
  <text x="84" y="48" font-family="Menlo, Monaco, monospace" font-size="13" fill="#4C5566">initial=7.3422  final=0.0233  reduction=99.68%  steps=1000</text>
  <text x="515.00" y="540" text-anchor="middle" font-family="Menlo, Monaco, monospace" font-size="12" fill="#6B7380">training step</text>
  <text x="20" y="270.00" transform="rotate(-90 20 270.00)" text-anchor="middle" font-family="Menlo, Monaco, monospace" font-size="12" fill="#6B7380">loss</text>
</svg>
