<svg xmlns="http://www.w3.org/2000/svg" width="980" height="560" viewBox="0 0 980 560" role="img" aria-label="rust loss convergence">
  <rect width="100%" height="100%" fill="#FCFCFE" />
  <rect x="84" y="54" width="862" height="432" fill="#FFFFFF" stroke="#D7DCE5" stroke-width="1" rx="8" />
  <line x1="84" y1="486.00" x2="946" y2="486.00" stroke="#E7E9EF" stroke-width="1" /><text x="74" y="491.00" text-anchor="end" font-family="Menlo, Monaco, monospace" font-size="12" fill="#6B7380">0.00</text><line x1="84" y1="399.60" x2="946" y2="399.60" stroke="#E7E9EF" stroke-width="1" /><text x="74" y="404.60" text-anchor="end" font-family="Menlo, Monaco, monospace" font-size="12" fill="#6B7380">1.64</text><line x1="84" y1="313.20" x2="946" y2="313.20" stroke="#E7E9EF" stroke-width="1" /><text x="74" y="318.20" text-anchor="end" font-family="Menlo, Monaco, monospace" font-size="12" fill="#6B7380">3.28</text><line x1="84" y1="226.80" x2="946" y2="226.80" stroke="#E7E9EF" stroke-width="1" /><text x="74" y="231.80" text-anchor="end" font-family="Menlo, Monaco, monospace" font-size="12" fill="#6B7380">4.91</text><line x1="84" y1="140.40" x2="946" y2="140.40" stroke="#E7E9EF" stroke-width="1" /><text x="74" y="145.40" text-anchor="end" font-family="Menlo, Monaco, monospace" font-size="12" fill="#6B7380">6.55</text><line x1="84" y1="54.00" x2="946" y2="54.00" stroke="#E7E9EF" stroke-width="1" /><text x="74" y="59.00" text-anchor="end" font-family="Menlo, Monaco, monospace" font-size="12" fill="#6B7380">8.19</text>
  <line x1="84" y1="486" x2="946" y2="486" stroke="#9FA8B8" stroke-width="1.2" />
  <line x1="84.00" y1="486" x2="84.00" y2="492" stroke="#B8C0CC" stroke-width="1" /><text x="84.00" y="510" text-anchor="middle" font-family="Menlo, Monaco, monospace" font-size="12" fill="#6B7380">0</text><line x1="256.57" y1="486" x2="256.57" y2="492" stroke="#B8C0CC" stroke-width="1" /><text x="256.57" y="510" text-anchor="middle" font-family="Menlo, Monaco, monospace" font-size="12" fill="#6B7380">200</text><line x1="429.15" y1="486" x2="429.15" y2="492" stroke="#B8C0CC" stroke-width="1" /><text x="429.15" y="510" text-anchor="middle" font-family="Menlo, Monaco, monospace" font-size="12" fill="#6B7380">400</text><line x1="601.72" y1="486" x2="601.72" y2="492" stroke="#B8C0CC" stroke-width="1" /><text x="601.72" y="510" text-anchor="middle" font-family="Menlo, Monaco, monospace" font-size="12" fill="#6B7380">600</text><line x1="774.29" y1="486" x2="774.29" y2="492" stroke="#B8C0CC" stroke-width="1" /><text x="774.29" y="510" text-anchor="middle" font-family="Menlo, Monaco, monospace" font-size="12" fill="#6B7380">800</text><line x1="946.00" y1="486" x2="946.00" y2="492" stroke="#B8C0CC" stroke-width="1" /><text x="946.00" y="510" text-anchor="middle" font-family="Menlo, Monaco, monospace" font-size="12" fill="#6B7380">999</text>

  <polyline fill="none" stroke="#D7671D" stroke-opacity="0.28" stroke-width="1.4" points="84.00,74.57 84.86,112.38 85.73,150.55 86.59,185.21 87.45,216.88 88.31,242.07 89.18,264.33 90.04,283.01 90.90,298.40 91.77,312.39 92.63,323.01 93.49,333.64 94.35,342.94 95.22,351.40 96.08,356.10 96.94,362.61 97.81,365.80 98.67,371.02 99.53,375.78 100.39,379.78 101.26,383.87 102.12,387.67 102.98,391.26 103.85,394.67 104.71,397.92 105.57,401.03 106.43,404.00 107.30,406.85 108.16,409.58 109.02,408.04 109.89,410.59 110.75,413.07 111.61,415.13 112.47,417.44 113.34,419.62 114.20,421.94 115.06,423.86 115.93,425.69 116.79,427.43 117.65,429.11 118.51,430.75 119.38,432.34 120.24,433.89 121.10,435.42 121.97,436.92 122.83,438.40 123.69,439.85 124.55,441.26 125.42,442.63 126.28,443.96 127.14,445.23 128.01,446.46 128.87,447.64 129.73,448.78 130.59,448.94 131.46,449.98 132.32,450.99 133.18,451.95 134.05,452.88 134.91,453.78 135.77,454.64 136.63,455.47 137.50,456.27 138.36,457.04 139.22,457.78 140.09,458.49 140.95,459.14 141.81,459.80 142.67,460.42 143.54,461.02 144.40,461.59 145.26,462.13 146.13,462.59 146.99,463.06 147.85,463.50 148.71,463.89 149.58,464.23 150.44,464.52 151.30,464.76 152.17,464.98 153.03,465.19 153.89,465.40 154.75,465.45 155.62,465.68 156.48,465.91 157.34,466.11 158.21,466.29 159.07,466.44 159.93,466.54 160.79,466.59 161.66,466.60 162.52,466.58 163.38,466.56 164.25,466.56 165.11,462.48 165.97,462.74 166.83,463.03 167.70,463.35 168.56,463.69 169.42,464.04 170.29,464.39 171.15,464.74 172.01,465.10 172.87,465.45 173.74,465.79 174.60,466.12 175.46,466.42 176.33,466.70 177.19,466.94 178.05,467.15 178.91,467.32 179.78,467.46 180.64,467.57 181.50,467.67 182.37,467.75 183.23,467.82 184.09,467.89 184.95,467.96 185.82,463.39 186.68,463.62 187.54,463.97 188.41,464.39 189.27,464.87 190.13,468.36 190.99,468.43 191.86,468.51 192.72,468.59 193.58,468.68 194.45,468.79 195.31,468.90 196.17,467.20 197.04,467.38 197.90,467.58 198.76,467.79 199.62,467.99 200.49,468.19 201.35,468.38 202.21,468.56 203.08,468.73 203.94,468.88 204.80,469.03 205.66,469.17 206.53,469.31 207.39,469.44 208.25,469.58 209.12,469.72 209.98,469.87 210.84,470.01 211.70,470.16 212.57,470.31 213.43,470.46 214.29,470.62 215.16,470.76 216.02,470.91 216.88,471.06 217.74,471.20 218.61,471.34 219.47,471.49 220.33,471.63 221.20,471.77 222.06,471.91 222.92,472.05 223.78,472.20 224.65,472.34 225.51,472.48 226.37,472.63 227.24,472.77 228.10,472.91 228.96,473.06 229.82,473.20 230.69,473.34 231.55,473.48 232.41,473.61 233.28,473.75 234.14,473.89 235.00,474.02 235.86,474.15 236.73,474.29 237.59,474.42 238.45,474.55 239.32,474.68 240.18,474.81 241.04,474.93 241.90,475.05 242.77,475.17 243.63,475.29 244.49,475.41 245.36,475.53 246.22,475.65 247.08,475.76 247.94,475.87 248.81,475.98 249.67,476.10 250.53,476.20 251.40,476.31 252.26,476.42 253.12,476.52 253.98,476.63 254.85,476.73 255.71,476.83 256.57,476.93 257.44,477.03 258.30,477.13 259.16,477.23 260.02,477.32 260.89,477.42 261.75,477.51 262.61,477.60 263.48,477.69 264.34,477.78 265.20,477.87 266.06,477.96 266.93,478.04 267.79,478.13 268.65,478.21 269.52,478.29 270.38,478.37 271.24,478.45 272.10,478.53 272.97,478.61 273.83,478.69 274.69,478.76 275.56,478.84 276.42,478.91 277.28,478.99 278.14,479.06 279.01,479.13 279.87,479.20 280.73,479.27 281.60,479.34 282.46,479.40 283.32,479.45 284.18,479.52 285.05,479.58 285.91,479.65 286.77,479.71 287.64,479.77 288.50,479.84 289.36,479.90 290.22,479.96 291.09,480.02 291.95,480.07 292.81,480.13 293.68,480.19 294.54,480.24 295.40,480.30 296.26,480.35 297.13,480.40 297.99,480.46 298.85,480.51 299.72,480.56 300.58,480.61 301.44,480.66 302.30,480.71 303.17,480.76 304.03,480.80 304.89,480.85 305.76,480.90 306.62,480.94 307.48,480.99 308.34,481.03 309.21,481.07 310.07,481.12 310.93,481.16 311.80,481.20 312.66,481.24 313.52,481.28 314.38,481.32 315.25,481.36 316.11,481.40 316.97,481.44 317.84,481.47 318.70,481.51 319.56,481.55 320.42,481.58 321.29,481.62 322.15,481.65 323.01,481.69 323.88,481.72 324.74,481.75 325.60,481.79 326.46,481.82 327.33,481.85 328.19,481.87 329.05,481.90 329.92,481.92 330.78,481.94 331.64,481.95 332.50,481.92 333.37,481.48 334.23,476.19 335.09,479.81 335.96,481.84 336.82,482.08 337.68,482.16 338.54,482.21 339.41,482.25 340.27,482.28 341.13,482.31 342.00,482.34 342.86,482.37 343.72,482.40 344.58,482.43 345.45,482.46 346.31,482.48 347.17,482.51 348.04,482.53 348.90,482.56 349.76,482.58 350.62,482.61 351.49,482.63 352.35,482.65 353.21,482.67 354.08,482.69 354.94,482.71 355.80,482.74 356.66,482.76 357.53,482.78 358.39,482.79 359.25,482.81 360.12,482.83 360.98,482.85 361.84,482.87 362.70,482.89 363.57,482.91 364.43,482.93 365.29,482.94 366.16,482.96 367.02,482.98 367.88,483.00 368.74,483.02 369.61,483.03 370.47,483.05 371.33,483.06 372.20,483.08 373.06,483.10 373.92,483.11 374.78,483.13 375.65,483.14 376.51,483.16 377.37,483.17 378.24,483.19 379.10,483.20 379.96,483.22 380.82,483.23 381.69,483.25 382.55,483.26 383.41,483.27 384.28,483.29 385.14,483.30 386.00,483.31 386.86,483.32 387.73,483.32 388.59,483.30 389.45,483.10 390.32,482.93 391.18,483.25 392.04,483.35 392.90,483.40 393.77,483.42 394.63,483.44 395.49,483.45 396.36,483.46 397.22,483.46 398.08,483.43 398.94,483.35 399.81,483.27 400.67,483.40 401.53,483.48 402.40,483.51 403.26,483.54 404.12,483.56 404.98,483.57 405.85,483.57 406.71,483.54 407.57,483.50 408.44,483.49 409.30,483.55 410.16,483.60 411.03,483.64 411.89,483.66 412.75,483.66 413.61,483.66 414.48,483.65 415.34,483.63 416.20,483.60 417.07,483.60 417.93,483.64 418.79,483.67 419.65,483.69 420.52,483.70 421.38,483.68 422.24,483.65 423.11,483.59 423.97,483.51 424.83,483.46 425.69,483.42 426.56,483.38 427.42,483.35 428.28,483.31 429.15,483.27 430.01,483.28 430.87,483.33 431.73,483.39 432.60,483.45 433.46,483.51 434.32,483.56 435.19,483.59 436.05,483.62 436.91,483.64 437.77,483.65 438.64,483.67 439.50,483.68 440.36,483.69 441.23,483.71 442.09,483.72 442.95,483.74 443.81,483.76 444.68,483.78 445.54,483.80 446.40,483.82 447.27,483.84 448.13,483.86 448.99,483.88 449.85,483.90 450.72,483.92 451.58,483.94 452.44,483.96 453.31,483.97 454.17,483.99 455.03,484.00 455.89,484.02 456.76,484.03 457.62,484.04 458.48,484.06 459.35,484.02 460.21,484.09 461.07,484.10 461.93,484.12 462.80,484.13 463.66,484.14 464.52,484.15 465.39,484.16 466.25,484.17 467.11,484.18 467.97,484.19 468.84,484.20 469.70,484.21 470.56,484.23 471.43,484.24 472.29,484.26 473.15,484.27 474.01,484.28 474.88,484.29 475.74,484.30 476.60,484.31 477.47,484.32 478.33,484.24 479.19,484.35 480.05,484.36 480.92,484.38 481.78,484.34 482.64,484.36 483.51,484.38 484.37,484.39 485.23,484.40 486.09,484.42 486.96,484.43 487.82,484.44 488.68,484.44 489.55,484.45 490.41,484.46 491.27,484.47 492.13,484.48 493.00,484.49 493.86,484.50 494.72,484.51 495.59,484.52 496.45,484.53 497.31,484.54 498.17,484.55 499.04,484.57 499.90,484.58 500.76,484.59 501.63,484.60 502.49,484.62 503.35,484.63 504.21,484.64 505.08,484.65 505.94,484.66 506.80,484.67 507.67,484.67 508.53,481.59 509.39,484.70 510.25,484.73 511.12,484.74 511.98,484.76 512.84,484.77 513.71,484.79 514.57,484.80 515.43,484.81 516.29,484.83 517.16,484.84 518.02,484.85 518.88,484.86 519.75,484.88 520.61,484.89 521.47,484.90 522.33,484.91 523.20,484.92 524.06,484.93 524.92,484.95 525.79,484.96 526.65,484.97 527.51,484.98 528.37,484.99 529.24,485.00 530.10,485.02 530.96,485.03 531.83,485.04 532.69,485.05 533.55,485.06 534.41,485.07 535.28,485.08 536.14,485.09 537.00,485.10 537.87,485.11 538.73,485.12 539.59,485.14 540.45,485.15 541.32,485.16 542.18,485.17 543.04,485.18 543.91,485.19 544.77,485.20 545.63,485.21 546.49,485.22 547.36,485.23 548.22,485.24 549.08,485.25 549.95,485.26 550.81,485.27 551.67,485.28 552.53,485.29 553.40,485.30 554.26,485.31 555.12,485.32 555.99,485.33 556.85,485.34 557.71,485.35 558.57,485.36 559.44,485.37 560.30,485.38 561.16,485.38 562.03,485.39 562.89,485.40 563.75,485.41 564.61,485.42 565.48,485.43 566.34,485.44 567.20,485.45 568.07,485.46 568.93,485.46 569.79,485.47 570.65,485.48 571.52,485.49 572.38,485.50 573.24,485.51 574.11,485.51 574.97,485.52 575.83,485.53 576.69,485.54 577.56,485.55 578.42,485.55 579.28,485.56 580.15,485.57 581.01,485.58 581.87,485.58 582.73,485.59 583.60,485.60 584.46,485.61 585.32,485.61 586.19,485.62 587.05,485.63 587.91,485.63 588.77,485.64 589.64,485.65 590.50,485.65 591.36,485.66 592.23,485.67 593.09,485.67 593.95,485.68 594.81,485.68 595.68,485.69 596.54,485.70 597.40,485.70 598.27,485.71 599.13,485.71 599.99,485.72 600.85,485.72 601.72,485.73 602.58,485.73 603.44,485.74 604.31,485.74 605.17,485.75 606.03,485.75 606.89,485.76 607.76,485.76 608.62,485.77 609.48,485.77 610.35,485.78 611.21,485.78 612.07,485.79 612.93,485.77 613.80,485.79 614.66,485.80 615.52,485.80 616.39,485.81 617.25,485.81 618.11,485.81 618.97,485.82 619.84,485.82 620.70,485.81 621.56,485.83 622.43,485.83 623.29,485.83 624.15,485.84 625.02,485.84 625.88,485.84 626.74,485.85 627.60,485.85 628.47,485.85 629.33,485.86 630.19,485.86 631.06,485.86 631.92,485.86 632.78,485.87 633.64,485.86 634.51,485.87 635.37,485.87 636.23,485.88 637.10,485.88 637.96,485.88 638.82,485.88 639.68,485.89 640.55,485.89 641.41,485.89 642.27,485.89 643.14,485.89 644.00,485.90 644.86,485.90 645.72,485.90 646.59,485.90 647.45,485.90 648.31,485.90 649.18,485.91 650.04,485.91 650.90,485.91 651.76,485.91 652.63,485.91 653.49,485.91 654.35,485.92 655.22,485.92 656.08,485.92 656.94,485.92 657.80,485.92 658.67,485.92 659.53,485.92 660.39,485.92 661.26,485.93 662.12,485.93 662.98,485.93 663.84,485.93 664.71,485.93 665.57,485.93 666.43,485.93 667.30,485.93 668.16,485.94 669.02,485.94 669.88,485.94 670.75,485.94 671.61,485.94 672.47,485.94 673.34,485.94 674.20,485.94 675.06,485.94 675.92,485.94 676.79,485.95 677.65,485.95 678.51,485.95 679.38,485.95 680.24,485.95 681.10,485.95 681.96,485.95 682.83,485.95 683.69,485.95 684.55,485.95 685.42,485.95 686.28,485.95 687.14,485.95 688.00,485.95 688.87,485.96 689.73,485.96 690.59,485.96 691.46,485.96 692.32,485.96 693.18,485.96 694.04,485.96 694.91,485.96 695.77,485.96 696.63,485.96 697.50,485.96 698.36,485.96 699.22,485.96 700.08,485.96 700.95,485.96 701.81,485.96 702.67,485.96 703.54,485.96 704.40,485.96 705.26,485.97 706.12,485.97 706.99,485.97 707.85,485.97 708.71,485.97 709.58,485.97 710.44,485.97 711.30,485.97 712.16,485.97 713.03,485.97 713.89,485.97 714.75,485.97 715.62,485.97 716.48,485.97 717.34,485.97 718.20,485.97 719.07,485.97 719.93,485.97 720.79,485.97 721.66,485.97 722.52,485.97 723.38,485.97 724.24,485.97 725.11,485.97 725.97,485.97 726.83,485.97 727.70,485.97 728.56,485.97 729.42,485.97 730.28,485.98 731.15,485.98 732.01,485.98 732.87,485.98 733.74,485.98 734.60,485.98 735.46,485.98 736.32,485.98 737.19,485.98 738.05,485.98 738.91,485.98 739.78,485.98 740.64,485.98 741.50,485.98 742.36,485.98 743.23,485.98 744.09,485.98 744.95,485.98 745.82,485.98 746.68,485.98 747.54,485.98 748.40,485.98 749.27,485.98 750.13,485.98 750.99,485.98 751.86,485.98 752.72,485.98 753.58,485.98 754.44,485.98 755.31,485.98 756.17,485.98 757.03,485.98 757.90,485.98 758.76,485.98 759.62,485.98 760.48,485.98 761.35,485.98 762.21,485.98 763.07,485.98 763.94,485.98 764.80,485.98 765.66,485.98 766.52,485.98 767.39,485.98 768.25,485.98 769.11,485.98 769.98,485.98 770.84,485.98 771.70,485.98 772.56,485.98 773.43,485.98 774.29,485.98 775.15,485.98 776.02,485.98 776.88,485.98 777.74,485.98 778.60,485.98 779.47,485.98 780.33,485.98 781.19,485.98 782.06,485.98 782.92,485.98 783.78,485.98 784.64,485.98 785.51,485.99 786.37,485.99 787.23,485.99 788.10,485.99 788.96,485.99 789.82,485.99 790.68,485.99 791.55,485.99 792.41,485.99 793.27,485.99 794.14,485.99 795.00,485.99 795.86,485.99 796.72,485.99 797.59,485.99 798.45,485.99 799.31,485.99 800.18,485.99 801.04,485.99 801.90,485.99 802.76,485.99 803.63,485.99 804.49,485.99 805.35,485.99 806.22,485.99 807.08,485.99 807.94,485.99 808.80,485.99 809.67,485.99 810.53,485.99 811.39,485.99 812.26,485.99 813.12,485.99 813.98,485.99 814.84,485.99 815.71,485.99 816.57,485.99 817.43,485.99 818.30,485.99 819.16,485.99 820.02,485.99 820.88,485.99 821.75,485.99 822.61,485.99 823.47,485.99 824.34,485.99 825.20,485.99 826.06,485.99 826.92,485.99 827.79,485.99 828.65,485.99 829.51,485.99 830.38,485.99 831.24,485.99 832.10,485.99 832.96,485.99 833.83,485.99 834.69,485.99 835.55,485.99 836.42,485.99 837.28,485.99 838.14,485.99 839.01,485.99 839.87,485.99 840.73,485.99 841.59,485.99 842.46,485.99 843.32,485.99 844.18,485.99 845.05,485.99 845.91,485.99 846.77,485.99 847.63,485.99 848.50,485.99 849.36,485.99 850.22,485.99 851.09,485.99 851.95,485.99 852.81,485.99 853.67,485.99 854.54,485.99 855.40,485.99 856.26,485.99 857.13,485.99 857.99,485.99 858.85,485.99 859.71,485.99 860.58,485.99 861.44,485.99 862.30,485.99 863.17,485.99 864.03,485.99 864.89,485.99 865.75,485.99 866.62,485.99 867.48,485.99 868.34,485.99 869.21,485.99 870.07,485.99 870.93,485.99 871.79,485.99 872.66,485.99 873.52,485.99 874.38,485.99 875.25,485.99 876.11,485.99 876.97,485.99 877.83,485.99 878.70,485.99 879.56,485.99 880.42,485.99 881.29,485.99 882.15,485.99 883.01,485.99 883.87,485.99 884.74,485.99 885.60,485.99 886.46,485.99 887.33,485.99 888.19,485.99 889.05,485.99 889.91,485.99 890.78,485.99 891.64,485.99 892.50,485.99 893.37,485.99 894.23,485.99 895.09,485.99 895.95,485.99 896.82,485.99 897.68,485.99 898.54,485.99 899.41,485.99 900.27,485.99 901.13,485.99 901.99,485.99 902.86,485.99 903.72,485.99 904.58,485.99 905.45,485.99 906.31,485.99 907.17,485.99 908.03,485.99 908.90,485.99 909.76,485.99 910.62,485.99 911.49,485.99 912.35,485.99 913.21,485.99 914.07,485.99 914.94,485.99 915.80,485.99 916.66,485.99 917.53,485.99 918.39,485.99 919.25,485.99 920.11,485.99 920.98,485.99 921.84,485.99 922.70,485.99 923.57,485.99 924.43,485.99 925.29,485.99 926.15,485.99 927.02,485.99 927.88,485.99 928.74,485.99 929.61,485.99 930.47,485.99 931.33,485.99 932.19,485.99 933.06,485.99 933.92,485.99 934.78,485.99 935.65,485.99 936.51,485.99 937.37,485.99 938.23,485.99 939.10,485.99 939.96,485.99 940.82,485.99 941.69,485.99 942.55,485.99 943.41,485.99 944.27,485.99 945.14,485.99 946.00,485.99" />
  <polyline fill="none" stroke="#D7671D" stroke-width="3" points="84.00,74.57 84.86,93.48 85.73,112.50 86.59,130.68 87.45,147.92 88.31,163.61 89.18,178.00 90.04,191.12 90.90,203.04 91.77,213.98 92.63,223.89 93.49,233.04 94.35,241.49 95.22,249.34 96.08,256.46 96.94,263.09 97.81,269.13 98.67,274.79 99.53,280.11 100.39,285.09 101.26,289.80 102.12,294.25 102.98,298.46 103.85,302.47 104.71,306.29 105.57,319.35 106.43,331.01 107.30,341.27 108.16,350.24 109.02,357.89 109.89,364.63 110.75,370.58 111.61,375.86 112.47,380.62 113.34,384.91 114.20,388.87 115.06,392.48 115.93,395.79 116.79,398.83 117.65,401.75 118.51,404.48 119.38,407.14 120.24,409.65 121.10,412.04 121.97,414.32 122.83,416.51 123.69,418.59 124.55,420.59 125.42,422.51 126.28,424.35 127.14,426.12 128.01,427.82 128.87,429.45 129.73,431.02 130.59,432.65 131.46,434.23 132.32,435.75 133.18,437.22 134.05,438.64 134.91,440.00 135.77,441.31 136.63,442.58 137.50,443.80 138.36,444.98 139.22,446.13 140.09,447.24 140.95,448.31 141.81,449.35 142.67,450.35 143.54,451.31 144.40,452.24 145.26,453.13 146.13,453.98 146.99,454.80 147.85,455.58 148.71,456.33 149.58,457.04 150.44,457.71 151.30,458.35 152.17,459.00 153.03,459.60 153.89,460.18 154.75,460.72 155.62,461.23 156.48,461.72 157.34,462.18 158.21,462.61 159.07,463.02 159.93,463.40 160.79,463.75 161.66,464.07 162.52,464.37 163.38,464.64 164.25,464.89 165.11,464.94 165.97,464.99 166.83,465.03 167.70,465.06 168.56,465.08 169.42,465.10 170.29,465.12 171.15,465.14 172.01,465.17 172.87,465.20 173.74,465.23 174.60,465.26 175.46,465.31 176.33,465.36 177.19,465.41 178.05,465.46 178.91,465.50 179.78,465.55 180.64,465.60 181.50,465.64 182.37,465.69 183.23,465.74 184.09,465.79 184.95,465.85 185.82,465.72 186.68,465.76 187.54,465.81 188.41,465.87 189.27,465.93 190.13,466.12 190.99,466.29 191.86,466.46 192.72,466.61 193.58,466.75 194.45,466.89 195.31,467.01 196.17,467.05 197.04,467.09 197.90,467.13 198.76,467.16 199.62,467.20 200.49,467.23 201.35,467.27 202.21,467.31 203.08,467.35 203.94,467.39 204.80,467.44 205.66,467.49 206.53,467.55 207.39,467.79 208.25,468.03 209.12,468.26 209.98,468.48 210.84,468.68 211.70,468.76 212.57,468.83 213.43,468.91 214.29,468.99 215.16,469.07 216.02,469.16 216.88,469.25 217.74,469.41 218.61,469.56 219.47,469.72 220.33,469.87 221.20,470.02 222.06,470.17 222.92,470.32 223.78,470.46 224.65,470.61 225.51,470.75 226.37,470.90 227.24,471.04 228.10,471.19 228.96,471.33 229.82,471.47 230.69,471.62 231.55,471.76 232.41,471.91 233.28,472.05 234.14,472.19 235.00,472.34 235.86,472.48 236.73,472.62 237.59,472.76 238.45,472.90 239.32,473.04 240.18,473.18 241.04,473.31 241.90,473.45 242.77,473.59 243.63,473.72 244.49,473.86 245.36,473.99 246.22,474.12 247.08,474.25 247.94,474.38 248.81,474.51 249.67,474.64 250.53,474.77 251.40,474.89 252.26,475.01 253.12,475.14 253.98,475.26 254.85,475.37 255.71,475.49 256.57,475.61 257.44,475.72 258.30,475.84 259.16,475.95 260.02,476.06 260.89,476.17 261.75,476.28 262.61,476.39 263.48,476.49 264.34,476.60 265.20,476.70 266.06,476.80 266.93,476.90 267.79,477.00 268.65,477.10 269.52,477.20 270.38,477.29 271.24,477.39 272.10,477.48 272.97,477.57 273.83,477.66 274.69,477.75 275.56,477.84 276.42,477.93 277.28,478.01 278.14,478.10 279.01,478.18 279.87,478.26 280.73,478.35 281.60,478.43 282.46,478.51 283.32,478.58 284.18,478.66 285.05,478.74 285.91,478.81 286.77,478.88 287.64,478.96 288.50,479.03 289.36,479.10 290.22,479.17 291.09,479.24 291.95,479.31 292.81,479.37 293.68,479.44 294.54,479.50 295.40,479.57 296.26,479.63 297.13,479.69 297.99,479.76 298.85,479.82 299.72,479.88 300.58,479.94 301.44,480.00 302.30,480.05 303.17,480.11 304.03,480.17 304.89,480.22 305.76,480.28 306.62,480.33 307.48,480.38 308.34,480.44 309.21,480.49 310.07,480.54 310.93,480.59 311.80,480.64 312.66,480.69 313.52,480.74 314.38,480.79 315.25,480.83 316.11,480.88 316.97,480.92 317.84,480.97 318.70,481.01 319.56,481.06 320.42,481.10 321.29,481.14 322.15,481.18 323.01,481.23 323.88,481.27 324.74,481.31 325.60,481.35 326.46,481.38 327.33,481.42 328.19,481.46 329.05,481.50 329.92,481.53 330.78,481.57 331.64,481.60 332.50,481.63 333.37,481.64 334.23,481.44 335.09,481.38 335.96,481.40 336.82,481.43 337.68,481.46 338.54,481.49 339.41,481.52 340.27,481.55 341.13,481.58 342.00,481.61 342.86,481.64 343.72,481.67 344.58,481.70 345.45,481.73 346.31,481.76 347.17,481.79 348.04,481.82 348.90,481.85 349.76,481.88 350.62,481.91 351.49,481.93 352.35,481.96 353.21,481.99 354.08,482.02 354.94,482.07 355.80,482.33 356.66,482.45 357.53,482.49 358.39,482.52 359.25,482.54 360.12,482.57 360.98,482.59 361.84,482.61 362.70,482.64 363.57,482.66 364.43,482.68 365.29,482.70 366.16,482.73 367.02,482.75 367.88,482.77 368.74,482.79 369.61,482.81 370.47,482.83 371.33,482.85 372.20,482.87 373.06,482.88 373.92,482.90 374.78,482.92 375.65,482.94 376.51,482.96 377.37,482.97 378.24,482.99 379.10,483.01 379.96,483.03 380.82,483.04 381.69,483.06 382.55,483.08 383.41,483.09 384.28,483.11 385.14,483.12 386.00,483.14 386.86,483.15 387.73,483.17 388.59,483.18 389.45,483.18 390.32,483.18 391.18,483.19 392.04,483.20 392.90,483.21 393.77,483.23 394.63,483.24 395.49,483.26 396.36,483.27 397.22,483.28 398.08,483.29 398.94,483.30 399.81,483.30 400.67,483.31 401.53,483.32 402.40,483.33 403.26,483.34 404.12,483.36 404.98,483.37 405.85,483.38 406.71,483.39 407.57,483.40 408.44,483.40 409.30,483.41 410.16,483.42 411.03,483.45 411.89,483.48 412.75,483.49 413.61,483.50 414.48,483.51 415.34,483.52 416.20,483.53 417.07,483.54 417.93,483.54 418.79,483.55 419.65,483.56 420.52,483.58 421.38,483.59 422.24,483.60 423.11,483.61 423.97,483.61 424.83,483.60 425.69,483.60 426.56,483.59 427.42,483.58 428.28,483.57 429.15,483.56 430.01,483.55 430.87,483.55 431.73,483.54 432.60,483.53 433.46,483.52 434.32,483.52 435.19,483.52 436.05,483.52 436.91,483.52 437.77,483.52 438.64,483.52 439.50,483.52 440.36,483.52 441.23,483.52 442.09,483.52 442.95,483.53 443.81,483.53 444.68,483.54 445.54,483.55 446.40,483.56 447.27,483.58 448.13,483.60 448.99,483.62 449.85,483.65 450.72,483.67 451.58,483.70 452.44,483.72 453.31,483.75 454.17,483.77 455.03,483.79 455.89,483.81 456.76,483.82 457.62,483.84 458.48,483.86 459.35,483.87 460.21,483.89 461.07,483.91 461.93,483.92 462.80,483.94 463.66,483.96 464.52,483.97 465.39,483.99 466.25,484.00 467.11,484.02 467.97,484.03 468.84,484.05 469.70,484.06 470.56,484.08 471.43,484.09 472.29,484.10 473.15,484.12 474.01,484.13 474.88,484.14 475.74,484.15 476.60,484.17 477.47,484.18 478.33,484.19 479.19,484.20 480.05,484.21 480.92,484.23 481.78,484.24 482.64,484.25 483.51,484.26 484.37,484.27 485.23,484.28 486.09,484.29 486.96,484.30 487.82,484.31 488.68,484.32 489.55,484.33 490.41,484.34 491.27,484.35 492.13,484.36 493.00,484.37 493.86,484.38 494.72,484.39 495.59,484.40 496.45,484.41 497.31,484.42 498.17,484.43 499.04,484.44 499.90,484.45 500.76,484.46 501.63,484.47 502.49,484.48 503.35,484.49 504.21,484.51 505.08,484.52 505.94,484.53 506.80,484.54 507.67,484.55 508.53,484.43 509.39,484.44 510.25,484.46 511.12,484.47 511.98,484.48 512.84,484.49 513.71,484.50 514.57,484.52 515.43,484.53 516.29,484.54 517.16,484.55 518.02,484.57 518.88,484.58 519.75,484.59 520.61,484.61 521.47,484.62 522.33,484.63 523.20,484.64 524.06,484.66 524.92,484.67 525.79,484.68 526.65,484.70 527.51,484.71 528.37,484.72 529.24,484.73 530.10,484.87 530.96,484.88 531.83,484.90 532.69,484.91 533.55,484.92 534.41,484.93 535.28,484.94 536.14,484.96 537.00,484.97 537.87,484.98 538.73,484.99 539.59,485.00 540.45,485.01 541.32,485.02 542.18,485.04 543.04,485.05 543.91,485.06 544.77,485.07 545.63,485.08 546.49,485.09 547.36,485.10 548.22,485.11 549.08,485.12 549.95,485.13 550.81,485.14 551.67,485.16 552.53,485.17 553.40,485.18 554.26,485.19 555.12,485.20 555.99,485.21 556.85,485.22 557.71,485.23 558.57,485.24 559.44,485.25 560.30,485.26 561.16,485.27 562.03,485.28 562.89,485.29 563.75,485.30 564.61,485.31 565.48,485.32 566.34,485.33 567.20,485.34 568.07,485.35 568.93,485.36 569.79,485.36 570.65,485.37 571.52,485.38 572.38,485.39 573.24,485.40 574.11,485.41 574.97,485.42 575.83,485.43 576.69,485.44 577.56,485.45 578.42,485.45 579.28,485.46 580.15,485.47 581.01,485.48 581.87,485.49 582.73,485.50 583.60,485.50 584.46,485.51 585.32,485.52 586.19,485.53 587.05,485.54 587.91,485.54 588.77,485.55 589.64,485.56 590.50,485.57 591.36,485.57 592.23,485.58 593.09,485.59 593.95,485.60 594.81,485.60 595.68,485.61 596.54,485.62 597.40,485.62 598.27,485.63 599.13,485.64 599.99,485.64 600.85,485.65 601.72,485.66 602.58,485.66 603.44,485.67 604.31,485.68 605.17,485.68 606.03,485.69 606.89,485.69 607.76,485.70 608.62,485.70 609.48,485.71 610.35,485.72 611.21,485.72 612.07,485.73 612.93,485.73 613.80,485.74 614.66,485.74 615.52,485.75 616.39,485.75 617.25,485.76 618.11,485.76 618.97,485.77 619.84,485.77 620.70,485.77 621.56,485.78 622.43,485.78 623.29,485.79 624.15,485.79 625.02,485.79 625.88,485.80 626.74,485.80 627.60,485.81 628.47,485.81 629.33,485.81 630.19,485.82 631.06,485.82 631.92,485.82 632.78,485.83 633.64,485.83 634.51,485.83 635.37,485.84 636.23,485.84 637.10,485.84 637.96,485.85 638.82,485.85 639.68,485.85 640.55,485.86 641.41,485.86 642.27,485.86 643.14,485.86 644.00,485.87 644.86,485.87 645.72,485.87 646.59,485.87 647.45,485.88 648.31,485.88 649.18,485.88 650.04,485.88 650.90,485.89 651.76,485.89 652.63,485.89 653.49,485.89 654.35,485.89 655.22,485.90 656.08,485.90 656.94,485.90 657.80,485.90 658.67,485.90 659.53,485.91 660.39,485.91 661.26,485.91 662.12,485.91 662.98,485.91 663.84,485.91 664.71,485.91 665.57,485.92 666.43,485.92 667.30,485.92 668.16,485.92 669.02,485.92 669.88,485.92 670.75,485.92 671.61,485.93 672.47,485.93 673.34,485.93 674.20,485.93 675.06,485.93 675.92,485.93 676.79,485.93 677.65,485.93 678.51,485.94 679.38,485.94 680.24,485.94 681.10,485.94 681.96,485.94 682.83,485.94 683.69,485.94 684.55,485.94 685.42,485.94 686.28,485.94 687.14,485.94 688.00,485.95 688.87,485.95 689.73,485.95 690.59,485.95 691.46,485.95 692.32,485.95 693.18,485.95 694.04,485.95 694.91,485.95 695.77,485.95 696.63,485.95 697.50,485.95 698.36,485.95 699.22,485.96 700.08,485.96 700.95,485.96 701.81,485.96 702.67,485.96 703.54,485.96 704.40,485.96 705.26,485.96 706.12,485.96 706.99,485.96 707.85,485.96 708.71,485.96 709.58,485.96 710.44,485.96 711.30,485.96 712.16,485.96 713.03,485.96 713.89,485.96 714.75,485.96 715.62,485.97 716.48,485.97 717.34,485.97 718.20,485.97 719.07,485.97 719.93,485.97 720.79,485.97 721.66,485.97 722.52,485.97 723.38,485.97 724.24,485.97 725.11,485.97 725.97,485.97 726.83,485.97 727.70,485.97 728.56,485.97 729.42,485.97 730.28,485.97 731.15,485.97 732.01,485.97 732.87,485.97 733.74,485.97 734.60,485.97 735.46,485.97 736.32,485.97 737.19,485.97 738.05,485.97 738.91,485.97 739.78,485.97 740.64,485.97 741.50,485.98 742.36,485.98 743.23,485.98 744.09,485.98 744.95,485.98 745.82,485.98 746.68,485.98 747.54,485.98 748.40,485.98 749.27,485.98 750.13,485.98 750.99,485.98 751.86,485.98 752.72,485.98 753.58,485.98 754.44,485.98 755.31,485.98 756.17,485.98 757.03,485.98 757.90,485.98 758.76,485.98 759.62,485.98 760.48,485.98 761.35,485.98 762.21,485.98 763.07,485.98 763.94,485.98 764.80,485.98 765.66,485.98 766.52,485.98 767.39,485.98 768.25,485.98 769.11,485.98 769.98,485.98 770.84,485.98 771.70,485.98 772.56,485.98 773.43,485.98 774.29,485.98 775.15,485.98 776.02,485.98 776.88,485.98 777.74,485.98 778.60,485.98 779.47,485.98 780.33,485.98 781.19,485.98 782.06,485.98 782.92,485.98 783.78,485.98 784.64,485.98 785.51,485.98 786.37,485.98 787.23,485.98 788.10,485.98 788.96,485.98 789.82,485.98 790.68,485.98 791.55,485.98 792.41,485.98 793.27,485.98 794.14,485.98 795.00,485.98 795.86,485.99 796.72,485.99 797.59,485.99 798.45,485.99 799.31,485.99 800.18,485.99 801.04,485.99 801.90,485.99 802.76,485.99 803.63,485.99 804.49,485.99 805.35,485.99 806.22,485.99 807.08,485.99 807.94,485.99 808.80,485.99 809.67,485.99 810.53,485.99 811.39,485.99 812.26,485.99 813.12,485.99 813.98,485.99 814.84,485.99 815.71,485.99 816.57,485.99 817.43,485.99 818.30,485.99 819.16,485.99 820.02,485.99 820.88,485.99 821.75,485.99 822.61,485.99 823.47,485.99 824.34,485.99 825.20,485.99 826.06,485.99 826.92,485.99 827.79,485.99 828.65,485.99 829.51,485.99 830.38,485.99 831.24,485.99 832.10,485.99 832.96,485.99 833.83,485.99 834.69,485.99 835.55,485.99 836.42,485.99 837.28,485.99 838.14,485.99 839.01,485.99 839.87,485.99 840.73,485.99 841.59,485.99 842.46,485.99 843.32,485.99 844.18,485.99 845.05,485.99 845.91,485.99 846.77,485.99 847.63,485.99 848.50,485.99 849.36,485.99 850.22,485.99 851.09,485.99 851.95,485.99 852.81,485.99 853.67,485.99 854.54,485.99 855.40,485.99 856.26,485.99 857.13,485.99 857.99,485.99 858.85,485.99 859.71,485.99 860.58,485.99 861.44,485.99 862.30,485.99 863.17,485.99 864.03,485.99 864.89,485.99 865.75,485.99 866.62,485.99 867.48,485.99 868.34,485.99 869.21,485.99 870.07,485.99 870.93,485.99 871.79,485.99 872.66,485.99 873.52,485.99 874.38,485.99 875.25,485.99 876.11,485.99 876.97,485.99 877.83,485.99 878.70,485.99 879.56,485.99 880.42,485.99 881.29,485.99 882.15,485.99 883.01,485.99 883.87,485.99 884.74,485.99 885.60,485.99 886.46,485.99 887.33,485.99 888.19,485.99 889.05,485.99 889.91,485.99 890.78,485.99 891.64,485.99 892.50,485.99 893.37,485.99 894.23,485.99 895.09,485.99 895.95,485.99 896.82,485.99 897.68,485.99 898.54,485.99 899.41,485.99 900.27,485.99 901.13,485.99 901.99,485.99 902.86,485.99 903.72,485.99 904.58,485.99 905.45,485.99 906.31,485.99 907.17,485.99 908.03,485.99 908.90,485.99 909.76,485.99 910.62,485.99 911.49,485.99 912.35,485.99 913.21,485.99 914.07,485.99 914.94,485.99 915.80,485.99 916.66,485.99 917.53,485.99 918.39,485.99 919.25,485.99 920.11,485.99 920.98,485.99 921.84,485.99 922.70,485.99 923.57,485.99 924.43,485.99 925.29,485.99 926.15,485.99 927.02,485.99 927.88,485.99 928.74,485.99 929.61,485.99 930.47,485.99 931.33,485.99 932.19,485.99 933.06,485.99 933.92,485.99 934.78,485.99 935.65,485.99 936.51,485.99 937.37,485.99 938.23,485.99 939.10,485.99 939.96,485.99 940.82,485.99 941.69,485.99 942.55,485.99 943.41,485.99 944.27,485.99 945.14,485.99 946.00,485.99" />
  <circle cx="946.00" cy="485.99" r="4.5" fill="#D7671D" />
  <text x="938.00" y="473.99" text-anchor="end"
        font-family="Menlo, Monaco, monospace" font-size="12" fill="#D7671D">final 0.0001</text>

  <text x="84" y="30" font-family="Avenir Next, Helvetica, Arial, sans-serif" font-size="24" fill="#19202D">Rust Loss Convergence</text>
  <text x="84" y="48" font-family="Menlo, Monaco, monospace" font-size="13" fill="#4C5566">initial=7.7982  final=0.0001  reduction=100.00%  steps=1000</text>
  <text x="515.00" y="540" text-anchor="middle" font-family="Menlo, Monaco, monospace" font-size="12" fill="#6B7380">training step</text>
  <text x="20" y="270.00" transform="rotate(-90 20 270.00)" text-anchor="middle" font-family="Menlo, Monaco, monospace" font-size="12" fill="#6B7380">loss</text>
</svg>
